Groote-Italic-Corsyf-10.ufo
<glyph name="ampersand" format="2">
  <advance width="1145"/>
  <unicode hex="0026"/>
  <outline>
    <contour>
      <point x="487" y="-65" type="curve" smooth="yes"/>
      <point x="697" y="-65"/>
      <point x="878" y="43"/>
      <point x="925" y="195" type="curve" smooth="yes"/>
      <point x="942" y="252"/>
      <point x="940" y="341"/>
      <point x="922" y="411" type="curve" smooth="yes"/>
      <point x="919" y="423"/>
      <point x="907" y="432"/>
      <point x="895" y="433" type="curve" smooth="yes"/>
      <point x="880" y="434" type="line" smooth="yes"/>
      <point x="868" y="435"/>
      <point x="863" y="424"/>
      <point x="869" y="407" type="curve" smooth="yes"/>
      <point x="888" y="348"/>
      <point x="886" y="253"/>
      <point x="863" y="177" type="curve" smooth="yes"/>
      <point x="830" y="70"/>
      <point x="693" y="-16"/>
      <point x="547" y="-16" type="curve" smooth="yes"/>
      <point x="320" y="-16"/>
      <point x="197" y="106"/>
      <point x="250" y="279" type="curve" smooth="yes"/>
      <point x="269" y="341"/>
      <point x="332" y="395"/>
      <point x="386" y="395" type="curve" smooth="yes"/>
      <point x="437" y="395"/>
      <point x="467" y="378"/>
      <point x="459" y="353" type="curve" smooth="yes"/>
      <point x="452" y="331"/>
      <point x="417" y="315"/>
      <point x="375" y="315" type="curve" smooth="yes"/>
      <point x="302" y="315"/>
      <point x="273" y="422"/>
      <point x="319" y="573" type="curve" smooth="yes"/>
      <point x="341" y="644"/>
      <point x="404" y="694"/>
      <point x="456" y="694" type="curve" smooth="yes"/>
      <point x="491" y="694"/>
      <point x="527" y="667"/>
      <point x="543" y="629" type="curve" smooth="yes"/>
      <point x="549" y="615"/>
      <point x="562" y="607"/>
      <point x="574" y="613" type="curve" smooth="yes"/>
      <point x="638" y="644" type="line" smooth="yes"/>
      <point x="651" y="650"/>
      <point x="659" y="661"/>
      <point x="657" y="673" type="curve" smooth="yes"/>
      <point x="649" y="723"/>
      <point x="605" y="759"/>
      <point x="549" y="759" type="curve" smooth="yes"/>
      <point x="398" y="759"/>
      <point x="274" y="668"/>
      <point x="235" y="540" type="curve" smooth="yes"/>
      <point x="187" y="383"/>
      <point x="231" y="272"/>
      <point x="342" y="272" type="curve" smooth="yes"/>
      <point x="422" y="272"/>
      <point x="495" y="320"/>
      <point x="516" y="389" type="curve" smooth="yes"/>
      <point x="527" y="425"/>
      <point x="498" y="450"/>
      <point x="447" y="450" type="curve" smooth="yes"/>
      <point x="325" y="450"/>
      <point x="210" y="353"/>
      <point x="168" y="215" type="curve" smooth="yes"/>
      <point x="118" y="51"/>
      <point x="250" y="-65"/>
    </contour>
    <contour>
      <point x="698" y="245" type="curve"/>
      <point x="722" y="272"/>
      <point x="743" y="276"/>
      <point x="765" y="301" type="curve" smooth="yes"/>
      <point x="778" y="316"/>
      <point x="772" y="328"/>
      <point x="752" y="331" type="curve" smooth="yes"/>
      <point x="691" y="340"/>
      <point x="654" y="371"/>
      <point x="664" y="405" type="curve" smooth="yes"/>
      <point x="672" y="433"/>
      <point x="704" y="453"/>
      <point x="741" y="453" type="curve" smooth="yes"/>
      <point x="774" y="453"/>
      <point x="935" y="386"/>
      <point x="977" y="386" type="curve" smooth="yes"/>
      <point x="1041" y="386"/>
      <point x="1109" y="463"/>
      <point x="1142" y="573" type="curve" smooth="yes"/>
      <point x="1167" y="655"/>
      <point x="1121" y="718"/>
      <point x="1031" y="725" type="curve" smooth="yes"/>
      <point x="1023" y="726"/>
      <point x="1009" y="721"/>
      <point x="999" y="713" type="curve" smooth="yes"/>
      <point x="934" y="666" type="line" smooth="yes"/>
      <point x="915" y="652"/>
      <point x="942" y="636"/>
      <point x="942" y="636" type="curve"/>
      <point x="1036" y="636"/>
      <point x="1088" y="592"/>
      <point x="1069" y="531" type="curve" smooth="yes"/>
      <point x="1055" y="484"/>
      <point x="1025" y="451"/>
      <point x="997" y="451" type="curve" smooth="yes"/>
      <point x="975" y="451"/>
      <point x="864" y="501"/>
      <point x="830" y="501" type="curve" smooth="yes"/>
      <point x="712" y="501"/>
      <point x="613" y="451"/>
      <point x="592" y="381" type="curve" smooth="yes"/>
      <point x="572" y="317"/>
      <point x="615" y="260"/>
    </contour>
  </outline>
</glyph>
<glyph name="asterisk" format="2">
  <advance width="770"/>
  <unicode hex="002A"/>
  <outline>
    <contour>
      <point x="375" y="330" type="curve" smooth="yes"/>
      <point x="394" y="330" type="line"/>
      <point x="394" y="349"/>
      <point x="447" y="462"/>
      <point x="447" y="504" type="curve" smooth="yes"/>
      <point x="447" y="548"/>
      <point x="419" y="579"/>
      <point x="378" y="579" type="curve" smooth="yes"/>
      <point x="338" y="579"/>
      <point x="309" y="549"/>
      <point x="309" y="507" type="curve" smooth="yes"/>
      <point x="309" y="473"/>
      <point x="375" y="351"/>
    </contour>
    <contour>
      <point x="389" y="366" type="curve" smooth="yes"/>
      <point x="389" y="363"/>
      <point x="383" y="366"/>
      <point x="379" y="366" type="curve"/>
      <point x="379" y="390"/>
      <point x="337" y="479"/>
      <point x="337" y="503" type="curve" smooth="yes"/>
      <point x="337" y="541"/>
      <point x="360" y="552"/>
      <point x="376" y="552" type="curve" smooth="yes"/>
      <point x="396" y="552"/>
      <point x="420" y="541"/>
      <point x="420" y="504" type="curve" smooth="yes"/>
      <point x="420" y="468"/>
      <point x="389" y="390"/>
    </contour>
    <contour>
      <point x="438" y="313" type="curve" smooth="yes"/>
      <point x="451" y="300" type="line"/>
      <point x="465" y="314"/>
      <point x="582" y="356"/>
      <point x="612" y="386" type="curve"/>
      <point x="643" y="417"/>
      <point x="645" y="459"/>
      <point x="616" y="488" type="curve" smooth="yes"/>
      <point x="588" y="516"/>
      <point x="546" y="515"/>
      <point x="516" y="485" type="curve" smooth="yes"/>
      <point x="493" y="462"/>
      <point x="453" y="329"/>
    </contour>
    <contour>
      <point x="474" y="329" type="curve" smooth="yes"/>
      <point x="472" y="327"/>
      <point x="469" y="334"/>
      <point x="467" y="336" type="curve"/>
      <point x="483" y="353"/>
      <point x="516" y="446"/>
      <point x="534" y="463" type="curve" smooth="yes"/>
      <point x="560" y="489"/>
      <point x="584" y="481"/>
      <point x="595" y="470" type="curve" smooth="yes"/>
      <point x="610" y="456"/>
      <point x="619" y="431"/>
      <point x="593" y="405" type="curve" smooth="yes"/>
      <point x="567" y="380"/>
      <point x="490" y="346"/>
    </contour>
    <contour>
      <point x="468" y="254" type="curve" smooth="yes"/>
      <point x="468" y="235" type="line"/>
      <point x="487" y="235"/>
      <point x="600" y="182"/>
      <point x="642" y="182" type="curve" smooth="yes"/>
      <point x="686" y="182"/>
      <point x="717" y="210"/>
      <point x="717" y="251" type="curve" smooth="yes"/>
      <point x="717" y="291"/>
      <point x="687" y="320"/>
      <point x="645" y="320" type="curve" smooth="yes"/>
      <point x="611" y="320"/>
      <point x="489" y="254"/>
    </contour>
    <contour>
      <point x="504" y="240" type="curve" smooth="yes"/>
      <point x="501" y="240"/>
      <point x="504" y="246"/>
      <point x="504" y="250" type="curve"/>
      <point x="528" y="250"/>
      <point x="617" y="292"/>
      <point x="641" y="292" type="curve" smooth="yes"/>
      <point x="679" y="292"/>
      <point x="690" y="269"/>
      <point x="690" y="253" type="curve" smooth="yes"/>
      <point x="690" y="233"/>
      <point x="679" y="209"/>
      <point x="642" y="209" type="curve" smooth="yes"/>
      <point x="606" y="209"/>
      <point x="528" y="240"/>
    </contour>
    <contour>
      <point x="451" y="194" type="curve" smooth="yes"/>
      <point x="438" y="181" type="line"/>
      <point x="452" y="167"/>
      <point x="494" y="49"/>
      <point x="524" y="19" type="curve" smooth="yes"/>
      <point x="555" y="-12"/>
      <point x="597" y="-14"/>
      <point x="626" y="15" type="curve" smooth="yes"/>
      <point x="654" y="44"/>
      <point x="653" y="85"/>
      <point x="623" y="115" type="curve" smooth="yes"/>
      <point x="600" y="139"/>
      <point x="467" y="178"/>
    </contour>
    <contour>
      <point x="467" y="158" type="curve" smooth="yes"/>
      <point x="465" y="160"/>
      <point x="472" y="162"/>
      <point x="474" y="165" type="curve"/>
      <point x="491" y="148"/>
      <point x="584" y="115"/>
      <point x="601" y="98" type="curve" smooth="yes"/>
      <point x="627" y="71"/>
      <point x="619" y="47"/>
      <point x="608" y="36" type="curve" smooth="yes"/>
      <point x="594" y="22"/>
      <point x="569" y="13"/>
      <point x="543" y="39" type="curve" smooth="yes"/>
      <point x="518" y="64"/>
      <point x="484" y="141"/>
    </contour>
    <contour>
      <point x="395" y="163" type="curve" smooth="yes"/>
      <point x="377" y="163" type="line"/>
      <point x="377" y="143"/>
      <point x="323" y="31"/>
      <point x="323" y="-12" type="curve" smooth="yes"/>
      <point x="323" y="-56"/>
      <point x="352" y="-87"/>
      <point x="392" y="-87" type="curve" smooth="yes"/>
      <point x="433" y="-87"/>
      <point x="461" y="-57"/>
      <point x="461" y="-14" type="curve" smooth="yes"/>
      <point x="461" y="19"/>
      <point x="395" y="141"/>
    </contour>
    <contour>
      <point x="381" y="126" type="curve" smooth="yes"/>
      <point x="381" y="129"/>
      <point x="388" y="126"/>
      <point x="391" y="126" type="curve"/>
      <point x="391" y="103"/>
      <point x="433" y="14"/>
      <point x="433" y="-11" type="curve" smooth="yes"/>
      <point x="433" y="-48"/>
      <point x="410" y="-59"/>
      <point x="395" y="-59" type="curve" smooth="yes"/>
      <point x="374" y="-59"/>
      <point x="351" y="-49"/>
      <point x="351" y="-12" type="curve" smooth="yes"/>
      <point x="351" y="24"/>
      <point x="381" y="103"/>
    </contour>
    <contour>
      <point x="333" y="179" type="curve" smooth="yes"/>
      <point x="320" y="192" type="line"/>
      <point x="306" y="178"/>
      <point x="188" y="137"/>
      <point x="158" y="107" type="curve"/>
      <point x="127" y="75"/>
      <point x="125" y="33"/>
      <point x="154" y="5" type="curve" smooth="yes"/>
      <point x="183" y="-24"/>
      <point x="224" y="-23"/>
      <point x="254" y="7" type="curve" smooth="yes"/>
      <point x="278" y="31"/>
      <point x="317" y="164"/>
    </contour>
    <contour>
      <point x="297" y="163" type="curve" smooth="yes"/>
      <point x="299" y="165"/>
      <point x="301" y="159"/>
      <point x="304" y="156" type="curve"/>
      <point x="287" y="139"/>
      <point x="254" y="47"/>
      <point x="237" y="30" type="curve" smooth="yes"/>
      <point x="210" y="3"/>
      <point x="186" y="12"/>
      <point x="175" y="22" type="curve" smooth="yes"/>
      <point x="161" y="37"/>
      <point x="152" y="61"/>
      <point x="178" y="87" type="curve" smooth="yes"/>
      <point x="203" y="113"/>
      <point x="280" y="147"/>
    </contour>
    <contour>
      <point x="303" y="239" type="curve" smooth="yes"/>
      <point x="303" y="257" type="line"/>
      <point x="283" y="257"/>
      <point x="171" y="311"/>
      <point x="128" y="311" type="curve" smooth="yes"/>
      <point x="84" y="311"/>
      <point x="53" y="282"/>
      <point x="53" y="242" type="curve" smooth="yes"/>
      <point x="53" y="201"/>
      <point x="83" y="173"/>
      <point x="126" y="173" type="curve" smooth="yes"/>
      <point x="159" y="173"/>
      <point x="281" y="239"/>
    </contour>
    <contour>
      <point x="266" y="253" type="curve" smooth="yes"/>
      <point x="269" y="253"/>
      <point x="266" y="246"/>
      <point x="266" y="243" type="curve"/>
      <point x="243" y="243"/>
      <point x="154" y="201"/>
      <point x="129" y="201" type="curve" smooth="yes"/>
      <point x="92" y="201"/>
      <point x="81" y="224"/>
      <point x="81" y="239" type="curve" smooth="yes"/>
      <point x="81" y="260"/>
      <point x="91" y="283"/>
      <point x="128" y="283" type="curve" smooth="yes"/>
      <point x="164" y="283"/>
      <point x="243" y="253"/>
    </contour>
    <contour>
      <point x="319" y="299" type="curve" smooth="yes"/>
      <point x="332" y="312" type="line"/>
      <point x="318" y="326"/>
      <point x="277" y="443"/>
      <point x="247" y="473" type="curve" smooth="yes"/>
      <point x="215" y="504"/>
      <point x="173" y="506"/>
      <point x="145" y="477" type="curve" smooth="yes"/>
      <point x="116" y="449"/>
      <point x="117" y="407"/>
      <point x="147" y="377" type="curve" smooth="yes"/>
      <point x="171" y="354"/>
      <point x="304" y="314"/>
    </contour>
    <contour>
      <point x="303" y="335" type="curve" smooth="yes"/>
      <point x="305" y="333"/>
      <point x="299" y="330"/>
      <point x="296" y="328" type="curve"/>
      <point x="279" y="344"/>
      <point x="187" y="377"/>
      <point x="170" y="395" type="curve" smooth="yes"/>
      <point x="143" y="421"/>
      <point x="152" y="445"/>
      <point x="162" y="456" type="curve" smooth="yes"/>
      <point x="177" y="471"/>
      <point x="201" y="480"/>
      <point x="227" y="454" type="curve" smooth="yes"/>
      <point x="253" y="428"/>
      <point x="287" y="351"/>
    </contour>
  </outline>
</glyph>
<glyph name="comma" format="2">
  <advance width="341"/>
  <unicode hex="002C"/>
  <outline>
    <contour>
      <point x="29" y="-187" type="curve"/>
      <point x="49" y="-208" type="line"/>
      <point x="129" y="-152"/>
      <point x="196" y="-70"/>
      <point x="210" y="-11" type="curve" smooth="yes"/>
      <point x="231" y="83"/>
      <point x="203" y="149"/>
      <point x="139" y="149" type="curve" smooth="yes"/>
      <point x="105" y="149"/>
      <point x="75" y="127"/>
      <point x="68" y="95" type="curve" smooth="yes"/>
      <point x="60" y="57"/>
      <point x="74" y="30"/>
      <point x="102" y="30" type="curve" smooth="yes"/>
      <point x="146" y="30"/>
      <point x="159" y="-7"/>
      <point x="147" y="-59" type="curve" smooth="yes"/>
      <point x="140" y="-88"/>
      <point x="91" y="-142"/>
    </contour>
  </outline>
</glyph>
<glyph name="hyphen" format="2">
  <advance width="392"/>
  <unicode hex="002D"/>
  <outline>
    <contour>
      <point x="57" y="223" type="line"/>
      <point x="321" y="223" type="line"/>
      <point x="348" y="285" type="line"/>
      <point x="84" y="285" type="line"/>
    </contour>
  </outline>
</glyph>
<glyph name="period" format="2">
  <advance width="282"/>
  <unicode hex="002E"/>
  <outline>
    <contour>
      <point x="100" y="-4" type="curve" smooth="yes"/>
      <point x="132" y="-4"/>
      <point x="158" y="28"/>
      <point x="158" y="67" type="curve" smooth="yes"/>
      <point x="158" y="106"/>
      <point x="132" y="138"/>
      <point x="100" y="138" type="curve" smooth="yes"/>
      <point x="68" y="138"/>
      <point x="42" y="106"/>
      <point x="42" y="67" type="curve" smooth="yes"/>
      <point x="42" y="28"/>
      <point x="68" y="-4"/>
    </contour>
  </outline>
</glyph>
<glyph name="colon" format="2">
  <advance width="300"/>
  <unicode hex="003A"/>
  <outline>
    <contour>
      <point x="171" y="348" type="curve"/>
      <point x="206" y="340"/>
      <point x="246" y="357"/>
      <point x="259" y="387" type="curve" smooth="yes"/>
      <point x="272" y="415"/>
      <point x="252" y="445"/>
      <point x="216" y="453" type="curve" smooth="yes"/>
      <point x="180" y="461"/>
      <point x="140" y="444"/>
      <point x="128" y="415" type="curve" smooth="yes"/>
      <point x="115" y="386"/>
      <point x="134" y="356"/>
    </contour>
    <contour>
      <point x="83" y="8" type="curve"/>
      <point x="118" y="0"/>
      <point x="158" y="17"/>
      <point x="171" y="47" type="curve" smooth="yes"/>
      <point x="183" y="75"/>
      <point x="163" y="105"/>
      <point x="128" y="113" type="curve" smooth="yes"/>
      <point x="92" y="121"/>
      <point x="52" y="104"/>
      <point x="39" y="75" type="curve" smooth="yes"/>
      <point x="26" y="46"/>
      <point x="45" y="16"/>
    </contour>
  </outline>
</glyph>
<glyph name="semicolon" format="2">
  <advance width="370"/>
  <unicode hex="003B"/>
  <outline>
    <contour>
      <point x="-2" y="-109" type="curve"/>
      <point x="9" y="-132" type="line"/>
      <point x="94" y="-103"/>
      <point x="166" y="-45"/>
      <point x="197" y="7" type="curve" smooth="yes"/>
      <point x="245" y="90"/>
      <point x="243" y="162"/>
      <point x="191" y="183" type="curve" smooth="yes"/>
      <point x="163" y="193"/>
      <point x="133" y="181"/>
      <point x="116" y="152" type="curve" smooth="yes"/>
      <point x="96" y="119"/>
      <point x="99" y="89"/>
      <point x="123" y="80" type="curve" smooth="yes"/>
      <point x="158" y="66"/>
      <point x="164" y="23"/>
      <point x="137" y="-23" type="curve" smooth="yes"/>
      <point x="121" y="-49"/>
      <point x="63" y="-85"/>
    </contour>
    <contour>
      <point x="191" y="348" type="curve"/>
      <point x="226" y="340"/>
      <point x="266" y="357"/>
      <point x="279" y="387" type="curve" smooth="yes"/>
      <point x="292" y="415"/>
      <point x="272" y="445"/>
      <point x="236" y="453" type="curve" smooth="yes"/>
      <point x="200" y="461"/>
      <point x="160" y="444"/>
      <point x="148" y="415" type="curve" smooth="yes"/>
      <point x="135" y="386"/>
      <point x="154" y="356"/>
    </contour>
  </outline>
</glyph>
<glyph name="A" format="2">
  <advance width="692"/>
  <unicode hex="0041"/>
  <anchor x="280" y="0" name="bottom"/>
  <anchor x="559" y="10" name="ogonek"/>
  <anchor x="431" y="635" name="top"/>
  <outline>
    <contour>
      <point x="343" y="-2" type="line"/>
      <point x="610" y="0" type="line"/>
      <point x="616" y="38" type="line"/>
      <point x="596" y="38" type="line"/>
      <point x="568" y="38"/>
      <point x="540" y="82"/>
      <point x="535" y="144" type="curve" smooth="yes"/>
      <point x="496" y="679" type="line"/>
      <point x="496" y="719" type="line"/>
      <point x="484" y="728" type="line"/>
      <point x="463" y="716"/>
      <point x="432" y="704"/>
      <point x="396" y="700" type="curve"/>
      <point x="388" y="666" type="line"/>
      <point x="413" y="659" type="line"/>
      <point x="433" y="388"/>
      <point x="449" y="162"/>
      <point x="452" y="99" type="curve" smooth="yes"/>
      <point x="453" y="62"/>
      <point x="432" y="36"/>
      <point x="403" y="36" type="curve" smooth="yes"/>
      <point x="350" y="36" type="line"/>
    </contour>
    <contour>
      <point x="-38" y="1" type="line"/>
      <point x="216" y="1" type="line"/>
      <point x="222" y="38" type="line"/>
      <point x="216" y="38"/>
      <point x="220" y="39"/>
      <point x="205" y="39" type="curve" smooth="yes"/>
      <point x="160" y="39"/>
      <point x="141" y="69"/>
      <point x="158" y="111" type="curve"/>
      <point x="426" y="660" type="line"/>
      <point x="395" y="686" type="line"/>
      <point x="289" y="480"/>
      <point x="172" y="250"/>
      <point x="113" y="115" type="curve" smooth="yes"/>
      <point x="93" y="70"/>
      <point x="54" y="39"/>
      <point x="17" y="39" type="curve" smooth="yes"/>
      <point x="-32" y="39" type="line"/>
    </contour>
    <contour>
      <point x="228" y="288" type="line"/>
      <point x="493" y="288" type="line"/>
      <point x="504" y="338" type="line"/>
      <point x="239" y="338" type="line"/>
    </contour>
  </outline>
</glyph>
<glyph name="B" format="2">
  <advance width="616"/>
  <unicode hex="0042"/>
  <outline>
    <contour>
      <point x="-5" y="0" type="line"/>
      <point x="30" y="0"/>
      <point x="61" y="2"/>
      <point x="104" y="2" type="curve" smooth="yes"/>
      <point x="148" y="2"/>
      <point x="254" y="0"/>
      <point x="298" y="0" type="curve" smooth="yes"/>
      <point x="414" y="0"/>
      <point x="514" y="78"/>
      <point x="539" y="188" type="curve" smooth="yes"/>
      <point x="565" y="299"/>
      <point x="485" y="377"/>
      <point x="348" y="377" type="curve" smooth="yes"/>
      <point x="218" y="377" type="line"/>
      <point x="208" y="336" type="line"/>
      <point x="251" y="336"/>
      <point x="302" y="336"/>
      <point x="338" y="336" type="curve" smooth="yes"/>
      <point x="411" y="336"/>
      <point x="449" y="273"/>
      <point x="428" y="185" type="curve" smooth="yes"/>
      <point x="407" y="95"/>
      <point x="345" y="31"/>
      <point x="279" y="31" type="curve" smooth="yes"/>
      <point x="216" y="31"/>
      <point x="175" y="57"/>
      <point x="184" y="94" type="curve" smooth="yes"/>
      <point x="316" y="669" type="line"/>
      <point x="341" y="669"/>
      <point x="380" y="669"/>
      <point x="407" y="669" type="curve" smooth="yes"/>
      <point x="469" y="669"/>
      <point x="500" y="609"/>
      <point x="480" y="523" type="curve" smooth="yes"/>
      <point x="460" y="437"/>
      <point x="389" y="377"/>
      <point x="308" y="377" type="curve"/>
      <point x="301" y="344" type="line"/>
      <point x="440" y="344"/>
      <point x="558" y="426"/>
      <point x="584" y="541" type="curve" smooth="yes"/>
      <point x="605" y="629"/>
      <point x="536" y="694"/>
      <point x="419" y="699" type="curve" smooth="yes"/>
      <point x="422" y="698"/>
      <point x="363" y="698"/>
      <point x="278" y="698" type="curve" smooth="yes"/>
      <point x="254" y="698"/>
      <point x="164" y="700"/>
      <point x="149" y="700" type="curve"/>
      <point x="143" y="662" type="line"/>
      <point x="150" y="662"/>
      <point x="156" y="662"/>
      <point x="165" y="662" type="curve" smooth="yes"/>
      <point x="204" y="662"/>
      <point x="226" y="637"/>
      <point x="218" y="601" type="curve" smooth="yes"/>
      <point x="207" y="552"/>
      <point x="101" y="114"/>
      <point x="93" y="81" type="curve" smooth="yes"/>
      <point x="88" y="56"/>
      <point x="62" y="38"/>
      <point x="32" y="38" type="curve" smooth="yes"/>
      <point x="1" y="38" type="line"/>
    </contour>
  </outline>
</glyph>
<glyph name="C" format="2">
  <advance width="696"/>
  <unicode hex="0043"/>
  <outline>
    <contour>
      <point x="334" y="-8" type="curve" smooth="yes"/>
      <point x="433" y="-8"/>
      <point x="542" y="44"/>
      <point x="609" y="118" type="curve"/>
      <point x="642" y="249" type="line"/>
      <point x="613" y="251" type="line"/>
      <point x="572" y="124"/>
      <point x="475" y="34"/>
      <point x="363" y="34" type="curve" smooth="yes"/>
      <point x="222" y="34"/>
      <point x="151" y="192"/>
      <point x="202" y="415" type="curve" smooth="yes"/>
      <point x="239" y="574"/>
      <point x="356" y="687"/>
      <point x="472" y="687" type="curve" smooth="yes"/>
      <point x="580" y="687"/>
      <point x="646" y="624"/>
      <point x="645" y="536" type="curve"/>
      <point x="676" y="536" type="line"/>
      <point x="707" y="707" type="line"/>
      <point x="674" y="707" type="line"/>
      <point x="665" y="689"/>
      <point x="663" y="677"/>
      <point x="655" y="677" type="curve"/>
      <point x="623" y="705"/>
      <point x="544" y="725"/>
      <point x="480" y="725" type="curve" smooth="yes"/>
      <point x="290" y="725"/>
      <point x="132" y="573"/>
      <point x="82" y="359" type="curve" smooth="yes"/>
      <point x="33" y="144"/>
      <point x="143" y="-8"/>
    </contour>
  </outline>
</glyph>
<glyph name="D" format="2">
  <advance width="734"/>
  <unicode hex="0044"/>
  <outline>
    <contour>
      <point x="-12" y="-3" type="line"/>
      <point x="41" y="-1"/>
      <point x="107" y="0"/>
      <point x="145" y="0" type="curve" smooth="yes"/>
      <point x="194" y="0"/>
      <point x="255" y="-3"/>
      <point x="312" y="-3" type="curve" smooth="yes"/>
      <point x="502" y="-3"/>
      <point x="675" y="160"/>
      <point x="728" y="390" type="curve" smooth="yes"/>
      <point x="770" y="573"/>
      <point x="677" y="702"/>
      <point x="502" y="702" type="curve" smooth="yes"/>
      <point x="449" y="702"/>
      <point x="328" y="700"/>
      <point x="302" y="700" type="curve" smooth="yes"/>
      <point x="277" y="700"/>
      <point x="233" y="702"/>
      <point x="221" y="702" type="curve" smooth="yes"/>
      <point x="159" y="702" type="line"/>
      <point x="152" y="662" type="line"/>
      <point x="163" y="662"/>
      <point x="163" y="662"/>
      <point x="186" y="662" type="curve" smooth="yes"/>
      <point x="230" y="662"/>
      <point x="253" y="626"/>
      <point x="241" y="576" type="curve" smooth="yes"/>
      <point x="226" y="509"/>
      <point x="144" y="163"/>
      <point x="136" y="132" type="curve" smooth="yes"/>
      <point x="122" y="71"/>
      <point x="76" y="37"/>
      <point x="25" y="37" type="curve" smooth="yes"/>
      <point x="-5" y="37" type="line"/>
    </contour>
    <contour>
      <point x="326" y="42" type="curve" smooth="yes"/>
      <point x="252" y="42"/>
      <point x="206" y="63"/>
      <point x="216" y="107" type="curve" smooth="yes"/>
      <point x="345" y="656" type="line"/>
      <point x="383" y="656"/>
      <point x="436" y="656"/>
      <point x="466" y="656" type="curve" smooth="yes"/>
      <point x="588" y="656"/>
      <point x="655" y="546"/>
      <point x="614" y="368" type="curve" smooth="yes"/>
      <point x="568" y="168"/>
      <point x="444" y="42"/>
    </contour>
  </outline>
</glyph>
<glyph name="E" format="2">
  <advance width="589"/>
  <unicode hex="0045"/>
  <outline>
    <contour>
      <point x="225" y="-1" type="curve" smooth="yes"/>
      <point x="435" y="-1" type="line"/>
      <point x="535" y="143" type="line"/>
      <point x="507" y="158" type="line"/>
      <point x="451" y="82"/>
      <point x="385" y="44"/>
      <point x="347" y="44" type="curve" smooth="yes"/>
      <point x="330" y="44"/>
      <point x="214" y="44"/>
      <point x="192" y="44" type="curve" smooth="yes"/>
      <point x="168" y="44"/>
      <point x="158" y="56"/>
      <point x="165" y="88" type="curve" smooth="yes"/>
      <point x="192" y="202"/>
      <point x="283" y="599"/>
      <point x="288" y="620" type="curve" smooth="yes"/>
      <point x="294" y="646"/>
      <point x="322" y="655"/>
      <point x="358" y="655" type="curve" smooth="yes"/>
      <point x="375" y="655"/>
      <point x="464" y="655"/>
      <point x="475" y="655" type="curve" smooth="yes"/>
      <point x="527" y="655"/>
      <point x="545" y="625"/>
      <point x="531" y="561" type="curve"/>
      <point x="564" y="561" type="line"/>
      <point x="596" y="700" type="line"/>
      <point x="525" y="700"/>
      <point x="400" y="700"/>
      <point x="383" y="700" type="curve" smooth="yes"/>
      <point x="366" y="700"/>
      <point x="285" y="697"/>
      <point x="273" y="697" type="curve" smooth="yes"/>
      <point x="260" y="697"/>
      <point x="178" y="700"/>
      <point x="159" y="700" type="curve"/>
      <point x="151" y="657" type="line"/>
      <point x="189" y="657"/>
      <point x="208" y="643"/>
      <point x="201" y="609" type="curve" smooth="yes"/>
      <point x="195" y="585"/>
      <point x="102" y="181"/>
      <point x="92" y="137" type="curve" smooth="yes"/>
      <point x="77" y="76"/>
      <point x="51" y="43"/>
      <point x="24" y="43" type="curve" smooth="yes"/>
      <point x="-6" y="43" type="line"/>
      <point x="-13" y="0" type="line"/>
      <point x="13" y="0"/>
      <point x="65" y="0"/>
      <point x="102" y="0" type="curve" smooth="yes"/>
      <point x="140" y="0"/>
      <point x="194" y="-1"/>
    </contour>
    <contour>
      <point x="413" y="260" type="curve"/>
      <point x="446" y="260" type="line"/>
      <point x="458" y="327"/>
      <point x="474" y="395"/>
      <point x="493" y="462" type="curve"/>
      <point x="459" y="462" type="line"/>
      <point x="445" y="403"/>
      <point x="418" y="379"/>
      <point x="385" y="379" type="curve" smooth="yes"/>
      <point x="207" y="379" type="line"/>
      <point x="200" y="339" type="line"/>
      <point x="253" y="339"/>
      <point x="357" y="339"/>
      <point x="378" y="339" type="curve" smooth="yes"/>
      <point x="412" y="339"/>
      <point x="421" y="295"/>
    </contour>
  </outline>
</glyph>
<glyph name="F" format="2">
  <advance width="520"/>
  <unicode hex="0046"/>
  <outline>
    <contour>
      <point x="224" y="-1" type="curve"/>
      <point x="230" y="37" type="line"/>
      <point x="212" y="37"/>
      <point x="197" y="37"/>
      <point x="190" y="37" type="curve" smooth="yes"/>
      <point x="166" y="37"/>
      <point x="156" y="49"/>
      <point x="164" y="81" type="curve" smooth="yes"/>
      <point x="190" y="195"/>
      <point x="280" y="600"/>
      <point x="288" y="620" type="curve" smooth="yes"/>
      <point x="294" y="636"/>
      <point x="322" y="655"/>
      <point x="358" y="655" type="curve" smooth="yes"/>
      <point x="375" y="655"/>
      <point x="464" y="655"/>
      <point x="475" y="655" type="curve" smooth="yes"/>
      <point x="527" y="655"/>
      <point x="537" y="625"/>
      <point x="531" y="561" type="curve"/>
      <point x="564" y="561" type="line"/>
      <point x="588" y="700" type="line"/>
      <point x="517" y="700"/>
      <point x="400" y="700"/>
      <point x="383" y="700" type="curve" smooth="yes"/>
      <point x="366" y="700"/>
      <point x="285" y="697"/>
      <point x="273" y="697" type="curve" smooth="yes"/>
      <point x="260" y="697"/>
      <point x="178" y="700"/>
      <point x="159" y="700" type="curve"/>
      <point x="151" y="657" type="line"/>
      <point x="189" y="657"/>
      <point x="208" y="633"/>
      <point x="201" y="609" type="curve" smooth="yes"/>
      <point x="194" y="585"/>
      <point x="102" y="181"/>
      <point x="92" y="137" type="curve" smooth="yes"/>
      <point x="76" y="69"/>
      <point x="49" y="36"/>
      <point x="23" y="36" type="curve" smooth="yes"/>
      <point x="-7" y="36" type="line"/>
      <point x="-13" y="0" type="line"/>
      <point x="13" y="0"/>
      <point x="65" y="0"/>
      <point x="102" y="0" type="curve" smooth="yes"/>
      <point x="139" y="0"/>
      <point x="192" y="-1"/>
    </contour>
    <contour>
      <point x="392" y="240" type="curve"/>
      <point x="425" y="240" type="line"/>
      <point x="437" y="307"/>
      <point x="462" y="415"/>
      <point x="480" y="482" type="curve"/>
      <point x="447" y="482" type="line"/>
      <point x="433" y="423"/>
      <point x="401" y="379"/>
      <point x="368" y="379" type="curve" smooth="yes"/>
      <point x="207" y="379" type="line"/>
      <point x="200" y="344" type="line"/>
      <point x="253" y="344"/>
      <point x="340" y="344"/>
      <point x="361" y="344" type="curve" smooth="yes"/>
      <point x="395" y="344"/>
      <point x="400" y="275"/>
    </contour>
  </outline>
</glyph>
<glyph name="G" format="2">
  <advance width="728"/>
  <unicode hex="0047"/>
  <outline>
    <contour>
      <point x="343" y="-20" type="curve" smooth="yes"/>
      <point x="409" y="-20"/>
      <point x="514" y="13"/>
      <point x="595" y="59" type="curve"/>
      <point x="598" y="76" type="line"/>
      <point x="590" y="82"/>
      <point x="586" y="92"/>
      <point x="587" y="99" type="curve" smooth="yes"/>
      <point x="590" y="112"/>
      <point x="611" y="199"/>
      <point x="616" y="222" type="curve" smooth="yes"/>
      <point x="623" y="252"/>
      <point x="645" y="274"/>
      <point x="668" y="274" type="curve" smooth="yes"/>
      <point x="688" y="274" type="line"/>
      <point x="696" y="319" type="line"/>
      <point x="428" y="319" type="line"/>
      <point x="420" y="273" type="line"/>
      <point x="440" y="273"/>
      <point x="500" y="273"/>
      <point x="505" y="273" type="curve" smooth="yes"/>
      <point x="526" y="273"/>
      <point x="533" y="234"/>
      <point x="520" y="180" type="curve" smooth="yes"/>
      <point x="497" y="80"/>
      <point x="425" y="10"/>
      <point x="358" y="10" type="curve" smooth="yes"/>
      <point x="225" y="10"/>
      <point x="147" y="150"/>
      <point x="192" y="347" type="curve" smooth="yes"/>
      <point x="237" y="540"/>
      <point x="371" y="676"/>
      <point x="517" y="676" type="curve" smooth="yes"/>
      <point x="609" y="676"/>
      <point x="664" y="606"/>
      <point x="665" y="507" type="curve"/>
      <point x="692" y="507" type="line"/>
      <point x="736" y="694" type="line"/>
      <point x="678" y="694"/>
      <point x="588" y="712"/>
      <point x="510" y="712" type="curve" smooth="yes"/>
      <point x="306" y="712"/>
      <point x="127" y="561"/>
      <point x="78" y="348" type="curve" smooth="yes"/>
      <point x="28" y="132"/>
      <point x="138" y="-20"/>
    </contour>
  </outline>
</glyph>
<glyph name="H" format="2">
  <advance width="785"/>
  <unicode hex="0048"/>
  <outline>
    <contour>
      <point x="404" y="0" type="line"/>
      <point x="688" y="0" type="line"/>
      <point x="695" y="38" type="line"/>
      <point x="690" y="38"/>
      <point x="685" y="38"/>
      <point x="679" y="38" type="curve" smooth="yes"/>
      <point x="637" y="38"/>
      <point x="604" y="63"/>
      <point x="616" y="112" type="curve" smooth="yes"/>
      <point x="621" y="137"/>
      <point x="724" y="581"/>
      <point x="729" y="605" type="curve" smooth="yes"/>
      <point x="738" y="644"/>
      <point x="774" y="662"/>
      <point x="798" y="662" type="curve" smooth="yes"/>
      <point x="822" y="662" type="line"/>
      <point x="829" y="700" type="line"/>
      <point x="569" y="700" type="line"/>
      <point x="563" y="662" type="line"/>
      <point x="572" y="662"/>
      <point x="580" y="662"/>
      <point x="591" y="662" type="curve" smooth="yes"/>
      <point x="625" y="662"/>
      <point x="655" y="652"/>
      <point x="649" y="624" type="curve" smooth="yes"/>
      <point x="644" y="601"/>
      <point x="538" y="146"/>
      <point x="534" y="125" type="curve" smooth="yes"/>
      <point x="520" y="68"/>
      <point x="477" y="38"/>
      <point x="445" y="38" type="curve" smooth="yes"/>
      <point x="411" y="38" type="line"/>
    </contour>
    <contour>
      <point x="-14" y="0" type="line"/>
      <point x="261" y="0" type="line"/>
      <point x="267" y="38" type="line"/>
      <point x="261" y="38"/>
      <point x="261" y="38"/>
      <point x="249" y="38" type="curve" smooth="yes"/>
      <point x="206" y="38"/>
      <point x="172" y="61"/>
      <point x="183" y="108" type="curve" smooth="yes"/>
      <point x="190" y="138"/>
      <point x="294" y="591"/>
      <point x="299" y="612" type="curve" smooth="yes"/>
      <point x="307" y="647"/>
      <point x="337" y="662"/>
      <point x="356" y="662" type="curve" smooth="yes"/>
      <point x="398" y="662" type="line"/>
      <point x="405" y="700" type="line"/>
      <point x="159" y="700" type="line"/>
      <point x="152" y="662" type="line"/>
      <point x="159" y="662"/>
      <point x="165" y="662"/>
      <point x="174" y="662" type="curve" smooth="yes"/>
      <point x="197" y="662"/>
      <point x="227" y="659"/>
      <point x="223" y="649" type="curve" smooth="yes"/>
      <point x="202" y="597"/>
      <point x="111" y="164"/>
      <point x="103" y="132" type="curve" smooth="yes"/>
      <point x="89" y="71"/>
      <point x="48" y="38"/>
      <point x="26" y="38" type="curve" smooth="yes"/>
      <point x="-7" y="38" type="line"/>
    </contour>
    <contour>
      <point x="229" y="335" type="line"/>
      <point x="623" y="335" type="line"/>
      <point x="631" y="380" type="line"/>
      <point x="237" y="380" type="line"/>
    </contour>
  </outline>
</glyph>
<glyph name="I" format="2">
  <advance width="329"/>
  <unicode hex="0049"/>
  <outline>
    <contour>
      <point x="-1" y="0" type="line"/>
      <point x="222" y="0" type="line"/>
      <point x="229" y="38" type="line"/>
      <point x="223" y="38"/>
      <point x="214" y="38"/>
      <point x="202" y="38" type="curve" smooth="yes"/>
      <point x="184" y="38"/>
      <point x="176" y="71"/>
      <point x="187" y="108" type="curve" smooth="yes"/>
      <point x="196" y="138"/>
      <point x="298" y="591"/>
      <point x="303" y="612" type="curve" smooth="yes"/>
      <point x="311" y="647"/>
      <point x="336" y="662"/>
      <point x="360" y="662" type="curve" smooth="yes"/>
      <point x="396" y="662" type="line"/>
      <point x="403" y="700" type="line"/>
      <point x="159" y="700" type="line"/>
      <point x="152" y="662" type="line"/>
      <point x="159" y="662"/>
      <point x="165" y="662"/>
      <point x="173" y="662" type="curve" smooth="yes"/>
      <point x="207" y="662"/>
      <point x="230" y="652"/>
      <point x="227" y="639" type="curve" smooth="yes"/>
      <point x="214" y="585"/>
      <point x="115" y="164"/>
      <point x="107" y="132" type="curve" smooth="yes"/>
      <point x="93" y="71"/>
      <point x="56" y="38"/>
      <point x="21" y="38" type="curve" smooth="yes"/>
      <point x="5" y="38" type="line"/>
    </contour>
  </outline>
</glyph>
<glyph name="J" format="2">
  <advance width="322"/>
  <unicode hex="004A"/>
  <outline>
    <contour>
      <point x="-107" y="-373" type="curve" smooth="yes"/>
      <point x="-16" y="-373"/>
      <point x="65" y="-294"/>
      <point x="91" y="-183" type="curve" smooth="yes"/>
      <point x="112" y="-92"/>
      <point x="265" y="570"/>
      <point x="274" y="611" type="curve" smooth="yes"/>
      <point x="283" y="649"/>
      <point x="321" y="664"/>
      <point x="365" y="662" type="curve" smooth="yes"/>
      <point x="390" y="661" type="line"/>
      <point x="397" y="700" type="line"/>
      <point x="134" y="700" type="line"/>
      <point x="127" y="661" type="line"/>
      <point x="135" y="661"/>
      <point x="141" y="662"/>
      <point x="150" y="662" type="curve" smooth="yes"/>
      <point x="181" y="662"/>
      <point x="199" y="654"/>
      <point x="193" y="628" type="curve" smooth="yes"/>
      <point x="184" y="591"/>
      <point x="-2" y="-217"/>
      <point x="-11" y="-254" type="curve" smooth="yes"/>
      <point x="-23" y="-306"/>
      <point x="-58" y="-332"/>
      <point x="-96" y="-332" type="curve" smooth="yes"/>
      <point x="-138" y="-332"/>
      <point x="-163" y="-320"/>
      <point x="-155" y="-288" type="curve" smooth="yes"/>
      <point x="-149" y="-262"/>
      <point x="-136" y="-256"/>
      <point x="-132" y="-239" type="curve" smooth="yes"/>
      <point x="-129" y="-227"/>
      <point x="-142" y="-219"/>
      <point x="-162" y="-219" type="curve" smooth="yes"/>
      <point x="-186" y="-219"/>
      <point x="-209" y="-249"/>
      <point x="-219" y="-292" type="curve" smooth="yes"/>
      <point x="-230" y="-339"/>
      <point x="-184" y="-373"/>
    </contour>
  </outline>
</glyph>
<glyph name="K" format="2">
  <advance width="656"/>
  <unicode hex="004B"/>
  <outline>
    <contour>
      <point x="449" y="0" type="curve" smooth="yes"/>
      <point x="577" y="0" type="line"/>
      <point x="584" y="38" type="line"/>
      <point x="578" y="38" type="line" smooth="yes"/>
      <point x="554" y="38"/>
      <point x="527" y="45"/>
      <point x="501" y="87" type="curve" smooth="yes"/>
      <point x="310" y="398" type="line"/>
      <point x="397" y="477"/>
      <point x="489" y="568"/>
      <point x="509" y="589" type="curve" smooth="yes"/>
      <point x="540" y="621"/>
      <point x="608" y="649"/>
      <point x="629" y="649" type="curve" smooth="yes"/>
      <point x="669" y="649" type="line"/>
      <point x="677" y="696" type="line"/>
      <point x="452" y="696" type="line"/>
      <point x="444" y="650" type="line"/>
      <point x="468" y="650" type="line" smooth="yes"/>
      <point x="475" y="650"/>
      <point x="498" y="631"/>
      <point x="460" y="589" type="curve"/>
      <point x="224" y="368" type="line"/>
      <point x="249" y="478"/>
      <point x="276" y="575"/>
      <point x="280" y="594" type="curve" smooth="yes"/>
      <point x="291" y="640"/>
      <point x="316" y="662"/>
      <point x="338" y="662" type="curve" smooth="yes"/>
      <point x="367" y="662" type="line"/>
      <point x="373" y="700" type="line"/>
      <point x="159" y="700" type="line"/>
      <point x="153" y="662" type="line"/>
      <point x="176" y="662" type="line" smooth="yes"/>
      <point x="196" y="662"/>
      <point x="206" y="646"/>
      <point x="202" y="630" type="curve" smooth="yes"/>
      <point x="76" y="83" type="line" smooth="yes"/>
      <point x="69" y="51"/>
      <point x="48" y="38"/>
      <point x="30" y="38" type="curve" smooth="yes"/>
      <point x="17" y="38" type="line"/>
      <point x="10" y="0" type="line"/>
      <point x="224" y="0" type="line"/>
      <point x="231" y="38" type="line"/>
      <point x="205" y="38" type="line" smooth="yes"/>
      <point x="172" y="38"/>
      <point x="155" y="52"/>
      <point x="163" y="87" type="curve" smooth="yes"/>
      <point x="215" y="318" type="line"/>
      <point x="231" y="333" type="line"/>
      <point x="406" y="36" type="line" smooth="yes"/>
      <point x="418" y="15"/>
      <point x="435" y="0"/>
    </contour>
  </outline>
</glyph>
<glyph name="L" format="2">
  <advance width="641"/>
  <unicode hex="004C"/>
  <outline>
    <contour>
      <point x="7" y="45" type="curve"/>
      <point x="-1" y="0" type="line"/>
      <point x="499" y="0" type="line"/>
      <point x="594" y="162" type="line"/>
      <point x="559" y="169" type="line"/>
      <point x="515" y="91"/>
      <point x="448" y="45"/>
      <point x="397" y="45" type="curve" smooth="yes"/>
      <point x="338" y="45"/>
      <point x="268" y="45"/>
      <point x="249" y="45" type="curve" smooth="yes"/>
      <point x="215" y="45"/>
      <point x="195" y="74"/>
      <point x="208" y="130" type="curve" smooth="yes"/>
      <point x="219" y="179"/>
      <point x="307" y="558"/>
      <point x="318" y="608" type="curve" smooth="yes"/>
      <point x="327" y="645"/>
      <point x="378" y="662"/>
      <point x="437" y="662" type="curve" smooth="yes"/>
      <point x="454" y="662" type="line"/>
      <point x="460" y="700" type="line"/>
      <point x="159" y="700" type="line"/>
      <point x="152" y="662" type="line"/>
      <point x="174" y="662" type="line"/>
      <point x="216" y="662"/>
      <point x="240" y="636"/>
      <point x="228" y="584" type="curve" smooth="yes"/>
      <point x="216" y="533"/>
      <point x="131" y="166"/>
      <point x="122" y="125" type="curve" smooth="yes"/>
      <point x="110" y="72"/>
      <point x="82" y="45"/>
      <point x="60" y="45" type="curve" smooth="yes"/>
      <point x="45" y="45"/>
      <point x="19" y="45"/>
    </contour>
  </outline>
</glyph>
<glyph name="M" format="2">
  <advance width="858"/>
  <unicode hex="004D"/>
  <outline>
    <contour>
      <point x="273" y="538" type="curve" smooth="yes"/>
      <point x="335" y="0" type="line"/>
      <point x="359" y="0" type="line"/>
      <point x="753" y="640" type="line"/>
      <point x="747" y="700" type="line"/>
      <point x="409" y="150" type="line"/>
      <point x="346" y="700" type="line"/>
      <point x="159" y="700" type="line"/>
      <point x="149" y="649" type="line"/>
      <point x="167" y="649"/>
      <point x="192" y="649"/>
      <point x="212" y="649" type="curve" smooth="yes"/>
      <point x="239" y="649"/>
      <point x="264" y="609"/>
    </contour>
    <contour>
      <point x="-14" y="0" type="line"/>
      <point x="217" y="0" type="line"/>
      <point x="223" y="37" type="line"/>
      <point x="214" y="37"/>
      <point x="207" y="37"/>
      <point x="198" y="37" type="curve" smooth="yes"/>
      <point x="154" y="37"/>
      <point x="129" y="54"/>
      <point x="138" y="92" type="curve" smooth="yes"/>
      <point x="268" y="646" type="line"/>
      <point x="226" y="646" type="line"/>
      <point x="187" y="474"/>
      <point x="118" y="187"/>
      <point x="108" y="141" type="curve" smooth="yes"/>
      <point x="92" y="74"/>
      <point x="66" y="37"/>
      <point x="30" y="37" type="curve" smooth="yes"/>
      <point x="-7" y="37" type="line"/>
    </contour>
    <contour>
      <point x="498" y="0" type="line"/>
      <point x="761" y="0" type="line"/>
      <point x="767" y="38" type="line"/>
      <point x="758" y="38"/>
      <point x="751" y="38"/>
      <point x="740" y="38" type="curve" smooth="yes"/>
      <point x="702" y="38"/>
      <point x="682" y="53"/>
      <point x="690" y="88" type="curve" smooth="yes"/>
      <point x="699" y="126"/>
      <point x="803" y="580"/>
      <point x="811" y="611" type="curve" smooth="yes"/>
      <point x="817" y="640"/>
      <point x="837" y="650"/>
      <point x="859" y="650" type="curve" smooth="yes"/>
      <point x="894" y="650" type="line"/>
      <point x="903" y="700" type="line"/>
      <point x="746" y="700" type="line"/>
      <point x="700" y="498"/>
      <point x="611" y="114"/>
      <point x="606" y="91" type="curve" smooth="yes"/>
      <point x="597" y="54"/>
      <point x="584" y="38"/>
      <point x="573" y="38" type="curve" smooth="yes"/>
      <point x="506" y="38" type="line"/>
    </contour>
  </outline>
</glyph>
<glyph name="N" format="2">
  <advance width="769"/>
  <unicode hex="004E"/>
  <outline>
    <contour>
      <point x="241" y="634" type="curve" smooth="yes"/>
      <point x="584" y="-6" type="line"/>
      <point x="612" y="-6" type="line"/>
      <point x="657" y="189"/>
      <point x="737" y="535"/>
      <point x="748" y="579" type="curve" smooth="yes"/>
      <point x="760" y="633"/>
      <point x="800" y="672"/>
      <point x="844" y="672" type="curve" smooth="yes"/>
      <point x="877" y="672" type="line"/>
      <point x="883" y="700" type="line"/>
      <point x="613" y="700" type="line"/>
      <point x="607" y="672" type="line"/>
      <point x="616" y="672"/>
      <point x="651" y="672"/>
      <point x="663" y="672" type="curve" smooth="yes"/>
      <point x="699" y="672"/>
      <point x="718" y="640"/>
      <point x="707" y="594" type="curve" smooth="yes"/>
      <point x="605" y="164" type="line"/>
      <point x="317" y="700" type="line"/>
      <point x="158" y="697" type="line"/>
      <point x="151" y="669" type="line"/>
      <point x="162" y="669"/>
      <point x="172" y="669"/>
      <point x="184" y="669" type="curve" smooth="yes"/>
      <point x="206" y="669"/>
      <point x="229" y="654"/>
    </contour>
    <contour>
      <point x="12" y="0" type="line"/>
      <point x="270" y="0" type="line"/>
      <point x="276" y="27" type="line"/>
      <point x="225" y="27"/>
      <point x="221" y="27"/>
      <point x="212" y="27" type="curve" smooth="yes"/>
      <point x="168" y="27"/>
      <point x="144" y="54"/>
      <point x="152" y="92" type="curve" smooth="yes"/>
      <point x="282" y="656" type="line"/>
      <point x="240" y="656" type="line"/>
      <point x="201" y="484"/>
      <point x="132" y="187"/>
      <point x="122" y="141" type="curve" smooth="yes"/>
      <point x="106" y="74"/>
      <point x="80" y="27"/>
      <point x="44" y="27" type="curve" smooth="yes"/>
      <point x="18" y="27" type="line"/>
    </contour>
  </outline>
</glyph>
<glyph name="O" format="2">
  <advance width="775"/>
  <unicode hex="004F"/>
  <anchor x="322" y="0" name="bottom"/>
  <anchor x="429" y="350" name="center"/>
  <anchor x="634" y="10" name="ogonek"/>
  <anchor x="465" y="635" name="top"/>
  <anchor x="169" y="700" name="topleft"/>
  <anchor x="902" y="700" name="topright"/>
  <outline>
    <contour>
      <point x="320" y="-11" type="curve" smooth="yes"/>
      <point x="516" y="-11"/>
      <point x="691" y="145"/>
      <point x="742" y="365" type="curve" smooth="yes"/>
      <point x="789" y="572"/>
      <point x="686" y="719"/>
      <point x="492" y="719" type="curve" smooth="yes"/>
      <point x="301" y="719"/>
      <point x="131" y="572"/>
      <point x="84" y="365" type="curve" smooth="yes"/>
      <point x="33" y="145"/>
      <point x="130" y="-11"/>
    </contour>
    <contour>
      <point x="323" y="29" type="curve"/>
      <point x="191" y="29"/>
      <point x="155" y="179"/>
      <point x="207" y="405" type="curve" smooth="yes"/>
      <point x="245" y="571"/>
      <point x="367" y="679"/>
      <point x="488" y="679" type="curve" smooth="yes"/>
      <point x="620" y="679"/>
      <point x="669" y="539"/>
      <point x="620" y="326" type="curve" smooth="yes"/>
      <point x="578" y="146"/>
      <point x="444" y="29"/>
    </contour>
  </outline>
</glyph>
<glyph name="P" format="2">
  <advance width="591"/>
  <unicode hex="0050"/>
  <outline>
    <contour>
      <point x="11" y="0" type="line"/>
      <point x="263" y="0" type="line"/>
      <point x="269" y="38" type="line"/>
      <point x="264" y="38"/>
      <point x="244" y="38"/>
      <point x="235" y="38" type="curve" smooth="yes"/>
      <point x="201" y="38"/>
      <point x="180" y="57"/>
      <point x="190" y="98" type="curve" smooth="yes"/>
      <point x="201" y="148"/>
      <point x="311" y="626"/>
      <point x="315" y="642" type="curve" smooth="yes"/>
      <point x="319" y="657"/>
      <point x="342" y="657"/>
      <point x="366" y="657" type="curve" smooth="yes"/>
      <point x="454" y="657"/>
      <point x="501" y="595"/>
      <point x="476" y="486" type="curve" smooth="yes"/>
      <point x="451" y="382"/>
      <point x="382" y="309"/>
      <point x="307" y="309" type="curve"/>
      <point x="300" y="279" type="line"/>
      <point x="435" y="279"/>
      <point x="550" y="369"/>
      <point x="579" y="497" type="curve" smooth="yes"/>
      <point x="607" y="616"/>
      <point x="537" y="702"/>
      <point x="411" y="702" type="curve" smooth="yes"/>
      <point x="365" y="702"/>
      <point x="293" y="699"/>
      <point x="269" y="699" type="curve" smooth="yes"/>
      <point x="255" y="699"/>
      <point x="210" y="702"/>
      <point x="159" y="702" type="curve"/>
      <point x="152" y="662" type="line"/>
      <point x="199" y="662"/>
      <point x="233" y="653"/>
      <point x="226" y="625" type="curve" smooth="yes"/>
      <point x="216" y="579"/>
      <point x="101" y="81"/>
      <point x="96" y="63" type="curve" smooth="yes"/>
      <point x="92" y="43"/>
      <point x="69" y="38"/>
      <point x="49" y="38" type="curve" smooth="yes"/>
      <point x="18" y="38" type="line"/>
    </contour>
  </outline>
</glyph>
<glyph name="Q" format="2">
  <advance width="755"/>
  <unicode hex="0051"/>
  <outline>
    <contour>
      <point x="317" y="-18" type="curve" smooth="yes"/>
      <point x="514" y="-18"/>
      <point x="688" y="138"/>
      <point x="739" y="358" type="curve" smooth="yes"/>
      <point x="787" y="565"/>
      <point x="683" y="712"/>
      <point x="489" y="712" type="curve" smooth="yes"/>
      <point x="298" y="712"/>
      <point x="129" y="565"/>
      <point x="81" y="358" type="curve" smooth="yes"/>
      <point x="30" y="138"/>
      <point x="128" y="-18"/>
    </contour>
    <contour>
      <point x="796" y="-175" type="curve"/>
      <point x="824" y="-175"/>
      <point x="862" y="-171"/>
      <point x="889" y="-165" type="curve"/>
      <point x="894" y="-130" type="line"/>
      <point x="676" y="-143"/>
      <point x="490" y="-84"/>
      <point x="444" y="27" type="curve"/>
      <point x="394" y="8"/>
      <point x="349" y="-5"/>
      <point x="336" y="-5" type="curve" smooth="yes"/>
      <point x="310" y="-5"/>
      <point x="267" y="13"/>
      <point x="232" y="38" type="curve"/>
      <point x="231" y="8" type="line"/>
      <point x="348" y="-99"/>
      <point x="583" y="-175"/>
    </contour>
    <contour>
      <point x="330" y="22" type="curve"/>
      <point x="199" y="22"/>
      <point x="152" y="172"/>
      <point x="204" y="398" type="curve" smooth="yes"/>
      <point x="243" y="564"/>
      <point x="365" y="672"/>
      <point x="485" y="672" type="curve" smooth="yes"/>
      <point x="617" y="672"/>
      <point x="666" y="532"/>
      <point x="617" y="319" type="curve" smooth="yes"/>
      <point x="575" y="139"/>
      <point x="451" y="22"/>
    </contour>
  </outline>
</glyph>
<glyph name="R" format="2">
  <advance width="649"/>
  <unicode hex="0052"/>
  <outline>
    <contour>
      <point x="485" y="-3" type="curve" smooth="yes"/>
      <point x="540" y="-3"/>
      <point x="596" y="-2"/>
      <point x="622" y="0" type="curve"/>
      <point x="629" y="39" type="line"/>
      <point x="628" y="38"/>
      <point x="613" y="38"/>
      <point x="595" y="38" type="curve" smooth="yes"/>
      <point x="572" y="38"/>
      <point x="524" y="41"/>
      <point x="513" y="66" type="curve" smooth="yes"/>
      <point x="439" y="226"/>
      <point x="377" y="340"/>
      <point x="367" y="357" type="curve"/>
      <point x="371" y="328" type="line"/>
      <point x="492" y="352"/>
      <point x="587" y="439"/>
      <point x="609" y="537" type="curve" smooth="yes"/>
      <point x="630" y="627"/>
      <point x="563" y="700"/>
      <point x="444" y="700" type="curve" smooth="yes"/>
      <point x="409" y="700"/>
      <point x="313" y="698"/>
      <point x="288" y="698" type="curve" smooth="yes"/>
      <point x="244" y="698"/>
      <point x="202" y="700"/>
      <point x="159" y="700" type="curve"/>
      <point x="152" y="662" type="line"/>
      <point x="158" y="662"/>
      <point x="158" y="662"/>
      <point x="170" y="662" type="curve" smooth="yes"/>
      <point x="210" y="662"/>
      <point x="237" y="639"/>
      <point x="227" y="593" type="curve" smooth="yes"/>
      <point x="214" y="539"/>
      <point x="114" y="103"/>
      <point x="107" y="73" type="curve" smooth="yes"/>
      <point x="101" y="47"/>
      <point x="73" y="38"/>
      <point x="50" y="38" type="curve" smooth="yes"/>
      <point x="22" y="38" type="line"/>
      <point x="16" y="0" type="line"/>
      <point x="254" y="0" type="line"/>
      <point x="260" y="38" type="line"/>
      <point x="249" y="38"/>
      <point x="232" y="38"/>
      <point x="207" y="38" type="curve" smooth="yes"/>
      <point x="195" y="38"/>
      <point x="186" y="46"/>
      <point x="192" y="72" type="curve" smooth="yes"/>
      <point x="202" y="116"/>
      <point x="311" y="588"/>
      <point x="319" y="625" type="curve" smooth="yes"/>
      <point x="325" y="648"/>
      <point x="349" y="655"/>
      <point x="370" y="655" type="curve" smooth="yes"/>
      <point x="391" y="655"/>
      <point x="404" y="655"/>
      <point x="424" y="655" type="curve" smooth="yes"/>
      <point x="488" y="655"/>
      <point x="519" y="601"/>
      <point x="499" y="517" type="curve" smooth="yes"/>
      <point x="478" y="426"/>
      <point x="400" y="372"/>
      <point x="310" y="372" type="curve" smooth="yes"/>
      <point x="213" y="372" type="line"/>
      <point x="205" y="327" type="line"/>
      <point x="294" y="327" type="line"/>
      <point x="334" y="219"/>
      <point x="384" y="114"/>
      <point x="411" y="60" type="curve" smooth="yes"/>
      <point x="428" y="23"/>
      <point x="456" y="-3"/>
    </contour>
  </outline>
</glyph>
<glyph name="S" format="2">
  <advance width="521"/>
  <unicode hex="0053"/>
  <outline>
    <contour>
      <point x="193" y="-16" type="curve" smooth="yes"/>
      <point x="319" y="-16"/>
      <point x="427" y="71"/>
      <point x="456" y="194" type="curve" smooth="yes"/>
      <point x="502" y="395"/>
      <point x="217" y="384"/>
      <point x="259" y="563" type="curve" smooth="yes"/>
      <point x="275" y="633"/>
      <point x="340" y="672"/>
      <point x="396" y="672" type="curve" smooth="yes"/>
      <point x="462" y="672"/>
      <point x="483" y="618"/>
      <point x="477" y="527" type="curve"/>
      <point x="500" y="527" type="line"/>
      <point x="541" y="704" type="line"/>
      <point x="510" y="704" type="line"/>
      <point x="498" y="673" type="line"/>
      <point x="480" y="696"/>
      <point x="438" y="712"/>
      <point x="395" y="712" type="curve" smooth="yes"/>
      <point x="284" y="712"/>
      <point x="187" y="634"/>
      <point x="161" y="524" type="curve" smooth="yes"/>
      <point x="116" y="329"/>
      <point x="399" y="334"/>
      <point x="356" y="148" type="curve" smooth="yes"/>
      <point x="338" y="70"/>
      <point x="263" y="24"/>
      <point x="193" y="24" type="curve" smooth="yes"/>
      <point x="107" y="24"/>
      <point x="82" y="95"/>
      <point x="107" y="209" type="curve"/>
      <point x="69" y="209" type="line"/>
      <point x="44" y="100" type="line"/>
      <point x="63" y="32"/>
      <point x="125" y="-16"/>
    </contour>
  </outline>
</glyph>
<glyph name="T" format="2">
  <advance width="601"/>
  <unicode hex="0054"/>
  <outline>
    <contour>
      <point x="130" y="0" type="line"/>
      <point x="386" y="0" type="line"/>
      <point x="392" y="38" type="line"/>
      <point x="383" y="38"/>
      <point x="376" y="38"/>
      <point x="364" y="38" type="curve" smooth="yes"/>
      <point x="352" y="38"/>
      <point x="302" y="42"/>
      <point x="308" y="66" type="curve" smooth="yes"/>
      <point x="454" y="695" type="line"/>
      <point x="369" y="695" type="line"/>
      <point x="323" y="497"/>
      <point x="232" y="104"/>
      <point x="230" y="95" type="curve" smooth="yes"/>
      <point x="224" y="68"/>
      <point x="191" y="34"/>
      <point x="159" y="34" type="curve" smooth="yes"/>
      <point x="136" y="34" type="line"/>
    </contour>
    <contour>
      <point x="635" y="546" type="line"/>
      <point x="662" y="552" type="line"/>
      <point x="686" y="713" type="line"/>
      <point x="645" y="700" type="line"/>
      <point x="163" y="700" type="line"/>
      <point x="136" y="711" type="line"/>
      <point x="86" y="562" type="line"/>
      <point x="109" y="556" type="line"/>
      <point x="181" y="660" type="line"/>
      <point x="608" y="660" type="line"/>
    </contour>
  </outline>
</glyph>
<glyph name="U" format="2">
  <advance width="728"/>
  <unicode hex="0055"/>
  <anchor x="298" y="0" name="bottom"/>
  <anchor x="591" y="10" name="ogonek"/>
  <anchor x="468" y="635" name="top"/>
  <anchor x="855" y="700" name="topright"/>
  <outline>
    <contour>
      <point x="332" y="-11" type="curve" smooth="yes"/>
      <point x="487" y="-11"/>
      <point x="622" y="95"/>
      <point x="657" y="246" type="curve" smooth="yes"/>
      <point x="713" y="484"/>
      <point x="748" y="635"/>
      <point x="742" y="611" type="curve" smooth="yes"/>
      <point x="749" y="640"/>
      <point x="773" y="661"/>
      <point x="801" y="661" type="curve" smooth="yes"/>
      <point x="812" y="661" type="line"/>
      <point x="819" y="699" type="line"/>
      <point x="581" y="699" type="line"/>
      <point x="574" y="661" type="line"/>
      <point x="606" y="661"/>
      <point x="658" y="661"/>
      <point x="669" y="661" type="curve" smooth="yes"/>
      <point x="687" y="661"/>
      <point x="695" y="637"/>
      <point x="687" y="603" type="curve" smooth="yes"/>
      <point x="650" y="448"/>
      <point x="615" y="298"/>
      <point x="604" y="241" type="curve" smooth="yes"/>
      <point x="576" y="124"/>
      <point x="464" y="41"/>
      <point x="333" y="41" type="curve" smooth="yes"/>
      <point x="224" y="41"/>
      <point x="161" y="104"/>
      <point x="182" y="193" type="curve" smooth="yes"/>
      <point x="230" y="406"/>
      <point x="272" y="585"/>
      <point x="282" y="626" type="curve" smooth="yes"/>
      <point x="287" y="646"/>
      <point x="314" y="661"/>
      <point x="347" y="661" type="curve" smooth="yes"/>
      <point x="361" y="661" type="line"/>
      <point x="368" y="699" type="line"/>
      <point x="164" y="699" type="line"/>
      <point x="157" y="661" type="line"/>
      <point x="163" y="661"/>
      <point x="168" y="661"/>
      <point x="176" y="661" type="curve" smooth="yes"/>
      <point x="193" y="661"/>
      <point x="196" y="623"/>
      <point x="184" y="570" type="curve" smooth="yes"/>
      <point x="207" y="668"/>
      <point x="171" y="512"/>
      <point x="97" y="192" type="curve" smooth="yes"/>
      <point x="69" y="73"/>
      <point x="166" y="-11"/>
    </contour>
  </outline>
</glyph>
<glyph name="V" format="2">
  <advance width="598"/>
  <unicode hex="0056"/>
  <outline>
    <contour>
      <point x="162" y="627" type="curve"/>
      <point x="240" y="-12" type="line"/>
      <point x="272" y="0" type="line"/>
      <point x="614" y="641" type="line" smooth="yes"/>
      <point x="623" y="657"/>
      <point x="646" y="659"/>
      <point x="668" y="659" type="curve" smooth="yes"/>
      <point x="703" y="659" type="line"/>
      <point x="711" y="700" type="line"/>
      <point x="515" y="700" type="line"/>
      <point x="508" y="659" type="line"/>
      <point x="554" y="659" type="line" smooth="yes"/>
      <point x="574" y="659"/>
      <point x="581" y="658"/>
      <point x="572" y="641" type="curve" smooth="yes"/>
      <point x="310" y="150" type="line"/>
      <point x="247" y="621" type="line" smooth="yes"/>
      <point x="243" y="651"/>
      <point x="265" y="662"/>
      <point x="290" y="662" type="curve" smooth="yes"/>
      <point x="334" y="662" type="line"/>
      <point x="341" y="700" type="line"/>
      <point x="111" y="700" type="line"/>
      <point x="105" y="662" type="line"/>
      <point x="134" y="662" type="line" smooth="yes"/>
      <point x="146" y="662"/>
      <point x="157" y="653"/>
    </contour>
  </outline>
</glyph>
<glyph name="W" format="2">
  <advance width="872"/>
  <unicode hex="0057"/>
  <outline>
    <contour>
      <point x="493" y="627" type="curve"/>
      <point x="521" y="-12" type="line"/>
      <point x="552" y="0" type="line"/>
      <point x="878" y="641" type="line" smooth="yes"/>
      <point x="886" y="657"/>
      <point x="909" y="659"/>
      <point x="931" y="659" type="curve" smooth="yes"/>
      <point x="967" y="659" type="line"/>
      <point x="974" y="700" type="line"/>
      <point x="815" y="700" type="line"/>
      <point x="808" y="659" type="line"/>
      <point x="817" y="659" type="line" smooth="yes"/>
      <point x="838" y="659"/>
      <point x="840" y="651"/>
      <point x="835" y="641" type="curve" smooth="yes"/>
      <point x="604" y="167" type="line"/>
      <point x="583" y="616" type="line" smooth="yes"/>
      <point x="582" y="646"/>
      <point x="596" y="662"/>
      <point x="622" y="662" type="curve" smooth="yes"/>
      <point x="649" y="662" type="line"/>
      <point x="655" y="700" type="line"/>
      <point x="443" y="700" type="line"/>
      <point x="436" y="662" type="line"/>
      <point x="465" y="662" type="line" smooth="yes"/>
      <point x="477" y="662"/>
      <point x="489" y="653"/>
    </contour>
    <contour>
      <point x="162" y="627" type="curve"/>
      <point x="189" y="-12" type="line"/>
      <point x="221" y="0" type="line"/>
      <point x="580" y="662" type="line"/>
      <point x="537" y="662" type="line"/>
      <point x="273" y="164" type="line"/>
      <point x="251" y="621" type="line" smooth="yes"/>
      <point x="250" y="651"/>
      <point x="265" y="662"/>
      <point x="290" y="662" type="curve" smooth="yes"/>
      <point x="317" y="662" type="line"/>
      <point x="324" y="700" type="line"/>
      <point x="111" y="700" type="line"/>
      <point x="105" y="662" type="line"/>
      <point x="134" y="662" type="line" smooth="yes"/>
      <point x="146" y="662"/>
      <point x="157" y="653"/>
    </contour>
  </outline>
</glyph>
<glyph name="X" format="2">
  <advance width="645"/>
  <unicode hex="0058"/>
  <outline>
    <contour>
      <point x="308" y="0" type="line"/>
      <point x="563" y="0" type="line"/>
      <point x="569" y="38" type="line"/>
      <point x="544" y="38" type="line"/>
      <point x="522" y="38"/>
      <point x="501" y="55"/>
      <point x="493" y="79" type="curve" smooth="yes"/>
      <point x="428" y="281"/>
      <point x="346" y="514"/>
      <point x="294" y="642" type="curve" smooth="yes"/>
      <point x="290" y="654"/>
      <point x="302" y="662"/>
      <point x="323" y="662" type="curve" smooth="yes"/>
      <point x="375" y="662" type="line"/>
      <point x="382" y="700" type="line"/>
      <point x="144" y="700" type="line"/>
      <point x="137" y="662" type="line"/>
      <point x="147" y="662" type="line"/>
      <point x="172" y="662"/>
      <point x="192" y="657"/>
      <point x="195" y="649" type="curve" smooth="yes"/>
      <point x="292" y="376"/>
      <point x="369" y="155"/>
      <point x="381" y="116" type="curve" smooth="yes"/>
      <point x="396" y="70"/>
      <point x="384" y="38"/>
      <point x="352" y="38" type="curve" smooth="yes"/>
      <point x="314" y="38" type="line"/>
    </contour>
    <contour>
      <point x="-29" y="38" type="curve"/>
      <point x="-36" y="0" type="line"/>
      <point x="193" y="0" type="line"/>
      <point x="199" y="38" type="line"/>
      <point x="192" y="38"/>
      <point x="193" y="38"/>
      <point x="176" y="38" type="curve" smooth="yes"/>
      <point x="130" y="38"/>
      <point x="118" y="65"/>
      <point x="147" y="104" type="curve" smooth="yes"/>
      <point x="157" y="116"/>
      <point x="247" y="216"/>
      <point x="365" y="346" type="curve"/>
      <point x="345" y="369" type="line"/>
      <point x="273" y="289"/>
      <point x="159" y="165"/>
      <point x="70" y="70" type="curve" smooth="yes"/>
      <point x="52" y="51"/>
      <point x="11" y="38"/>
    </contour>
    <contour>
      <point x="350" y="359" type="curve"/>
      <point x="370" y="336" type="line"/>
      <point x="653" y="651" type="line"/>
      <point x="659" y="657"/>
      <point x="672" y="662"/>
      <point x="686" y="662" type="curve" smooth="yes"/>
      <point x="721" y="662" type="line"/>
      <point x="728" y="700" type="line"/>
      <point x="497" y="700" type="line"/>
      <point x="491" y="662" type="line"/>
      <point x="503" y="662"/>
      <point x="512" y="662"/>
      <point x="555" y="662" type="curve" smooth="yes"/>
      <point x="586" y="662"/>
      <point x="579" y="628"/>
      <point x="538" y="579" type="curve" smooth="yes"/>
      <point x="518" y="555"/>
      <point x="440" y="464"/>
    </contour>
  </outline>
</glyph>
<glyph name="Y" format="2">
  <advance width="562"/>
  <unicode hex="0059"/>
  <outline>
    <contour>
      <point x="177" y="649" type="curve"/>
      <point x="250" y="292" type="line"/>
      <point x="326" y="319" type="line"/>
      <point x="260" y="632" type="line"/>
      <point x="257" y="650"/>
      <point x="275" y="662"/>
      <point x="303" y="662" type="curve" smooth="yes"/>
      <point x="378" y="662" type="line"/>
      <point x="385" y="700" type="line"/>
      <point x="121" y="700" type="line"/>
      <point x="115" y="662" type="line"/>
      <point x="150" y="662" type="line"/>
      <point x="163" y="662"/>
      <point x="175" y="657"/>
    </contour>
    <contour>
      <point x="99" y="0" type="line"/>
      <point x="355" y="0" type="line"/>
      <point x="361" y="38" type="line"/>
      <point x="352" y="38"/>
      <point x="345" y="38"/>
      <point x="333" y="38" type="curve" smooth="yes"/>
      <point x="297" y="38"/>
      <point x="274" y="50"/>
      <point x="277" y="66" type="curve" smooth="yes"/>
      <point x="335" y="314" type="line"/>
      <point x="250" y="314" type="line"/>
      <point x="199" y="95" type="line"/>
      <point x="191" y="59"/>
      <point x="162" y="34"/>
      <point x="128" y="34" type="curve" smooth="yes"/>
      <point x="105" y="34" type="line"/>
    </contour>
    <contour>
      <point x="501" y="630" type="curve" smooth="yes"/>
      <point x="297" y="314" type="line"/>
      <point x="335" y="314" type="line"/>
      <point x="572" y="651" type="line"/>
      <point x="578" y="657"/>
      <point x="595" y="662"/>
      <point x="613" y="662" type="curve" smooth="yes"/>
      <point x="648" y="662" type="line"/>
      <point x="654" y="700" type="line"/>
      <point x="475" y="700" type="line"/>
      <point x="468" y="662" type="line"/>
      <point x="505" y="662" type="line"/>
      <point x="513" y="662"/>
      <point x="513" y="649"/>
    </contour>
  </outline>
</glyph>
<glyph name="Z" format="2">
  <advance width="595"/>
  <unicode hex="005A"/>
  <outline>
    <contour>
      <point x="-15" y="0" type="curve"/>
      <point x="198" y="0" type="line"/>
      <point x="206" y="45" type="line"/>
      <point x="147" y="45" type="line" smooth="yes"/>
      <point x="127" y="45"/>
      <point x="126" y="52"/>
      <point x="145" y="77" type="curve"/>
      <point x="611" y="649" type="line"/>
      <point x="623" y="700" type="line"/>
      <point x="223" y="700" type="line"/>
      <point x="123" y="482" type="line"/>
      <point x="161" y="476" type="line"/>
      <point x="227" y="587"/>
      <point x="292" y="655"/>
      <point x="316" y="655" type="curve" smooth="yes"/>
      <point x="492" y="655" type="line" smooth="yes"/>
      <point x="512" y="655"/>
      <point x="514" y="650"/>
      <point x="495" y="628" type="curve" smooth="yes"/>
      <point x="398" y="516"/>
      <point x="188" y="256"/>
    </contour>
    <contour>
      <point x="17" y="0" type="line"/>
      <point x="449" y="0" type="line"/>
      <point x="538" y="212" type="line"/>
      <point x="514" y="219" type="line"/>
      <point x="469" y="141"/>
      <point x="391" y="45"/>
      <point x="340" y="45" type="curve" smooth="yes"/>
      <point x="267" y="45" type="line"/>
      <point x="78" y="45" type="line"/>
      <point x="25" y="45" type="line"/>
    </contour>
  </outline>
</glyph>
<glyph name="a" format="2">
  <advance width="457"/>
  <unicode hex="0061"/>
  <anchor x="163" y="0" name="bottom"/>
  <anchor x="348" y="10" name="ogonek"/>
  <anchor x="295" y="435" name="top"/>
  <outline>
    <contour>
      <point x="77" y="-8" type="curve" smooth="yes"/>
      <point x="117" y="-8"/>
      <point x="202" y="53"/>
      <point x="283" y="140" type="curve"/>
      <point x="266" y="168" type="line"/>
      <point x="207" y="108"/>
      <point x="146" y="66"/>
      <point x="119" y="66" type="curve" smooth="yes"/>
      <point x="91" y="66"/>
      <point x="97" y="128"/>
      <point x="133" y="229" type="curve" smooth="yes"/>
      <point x="185" y="370"/>
      <point x="265" y="460"/>
      <point x="326" y="460" type="curve" smooth="yes"/>
      <point x="337" y="460"/>
      <point x="358" y="456"/>
      <point x="376" y="437" type="curve"/>
      <point x="414" y="476" type="line"/>
      <point x="398" y="495"/>
      <point x="373" y="508"/>
      <point x="354" y="508" type="curve" smooth="yes"/>
      <point x="240" y="508"/>
      <point x="112" y="379"/>
      <point x="45" y="197" type="curve" smooth="yes"/>
      <point x="2" y="77"/>
      <point x="15" y="-8"/>
    </contour>
    <contour>
      <point x="263" y="-8" type="curve" smooth="yes"/>
      <point x="324" y="-8"/>
      <point x="402" y="82"/>
      <point x="451" y="210" type="curve"/>
      <point x="421" y="220" type="line"/>
      <point x="386" y="129"/>
      <point x="345" y="64"/>
      <point x="322" y="64" type="curve" smooth="yes"/>
      <point x="302" y="64"/>
      <point x="307" y="105"/>
      <point x="334" y="177" type="curve" smooth="yes"/>
      <point x="372" y="284"/>
      <point x="424" y="421"/>
      <point x="460" y="508" type="curve"/>
      <point x="382" y="500" type="line"/>
      <point x="288" y="250"/>
      <point x="211" y="52"/>
      <point x="242" y="135" type="curve"/>
      <point x="211" y="51"/>
      <point x="220" y="-8"/>
    </contour>
  </outline>
</glyph>
<glyph name="c" format="2">
  <advance width="393"/>
  <unicode hex="0063"/>
  <outline>
    <contour>
      <point x="132" y="-8" type="curve" smooth="yes"/>
      <point x="217" y="-8"/>
      <point x="283" y="55"/>
      <point x="330" y="144" type="curve"/>
      <point x="306" y="169" type="line"/>
      <point x="258" y="88"/>
      <point x="207" y="30"/>
      <point x="146" y="30" type="curve" smooth="yes"/>
      <point x="90" y="30"/>
      <point x="97" y="136"/>
      <point x="158" y="300" type="curve" smooth="yes"/>
      <point x="197" y="405"/>
      <point x="241" y="470"/>
      <point x="279" y="470" type="curve" smooth="yes"/>
      <point x="324" y="470"/>
      <point x="339" y="432"/>
      <point x="314" y="363" type="curve" smooth="yes"/>
      <point x="311" y="352"/>
      <point x="314" y="344"/>
      <point x="322" y="344" type="curve" smooth="yes"/>
      <point x="357" y="344"/>
      <point x="388" y="364"/>
      <point x="397" y="393" type="curve" smooth="yes"/>
      <point x="419" y="460"/>
      <point x="378" y="508"/>
      <point x="296" y="508" type="curve" smooth="yes"/>
      <point x="203" y="508"/>
      <point x="110" y="409"/>
      <point x="58" y="270" type="curve" smooth="yes"/>
      <point x="-3" y="107"/>
      <point x="26" y="-8"/>
    </contour>
  </outline>
</glyph>
<glyph name="f" format="2">
  <advance width="312"/>
  <unicode hex="0066"/>
  <outline>
    <contour>
      <point x="-13" y="-208" type="curve" smooth="yes"/>
      <point x="52" y="-208"/>
      <point x="134" y="-63"/>
      <point x="171" y="142" type="curve" smooth="yes"/>
      <point x="236" y="507" type="line" smooth="yes"/>
      <point x="254" y="608"/>
      <point x="293" y="670"/>
      <point x="330" y="670" type="curve" smooth="yes"/>
      <point x="362" y="670"/>
      <point x="373" y="639"/>
      <point x="358" y="581" type="curve" smooth="yes"/>
      <point x="354" y="568"/>
      <point x="358" y="558"/>
      <point x="368" y="558" type="curve" smooth="yes"/>
      <point x="401" y="558"/>
      <point x="430" y="578"/>
      <point x="437" y="606" type="curve" smooth="yes"/>
      <point x="451" y="663"/>
      <point x="413" y="703"/>
      <point x="345" y="703" type="curve" smooth="yes"/>
      <point x="256" y="703"/>
      <point x="177" y="616"/>
      <point x="155" y="493" type="curve" smooth="yes"/>
      <point x="90" y="128" type="line" smooth="yes"/>
      <point x="56" y="-58"/>
      <point x="13" y="-175"/>
      <point x="2" y="-175" type="curve" smooth="yes"/>
      <point x="-30" y="-175"/>
      <point x="-41" y="-144"/>
      <point x="-26" y="-86" type="curve" smooth="yes"/>
      <point x="-22" y="-73"/>
      <point x="-26" y="-63"/>
      <point x="-36" y="-63" type="curve" smooth="yes"/>
      <point x="-69" y="-63"/>
      <point x="-98" y="-83"/>
      <point x="-105" y="-111" type="curve" smooth="yes"/>
      <point x="-119" y="-168"/>
      <point x="-81" y="-208"/>
    </contour>
    <contour>
      <point x="66" y="408" type="line"/>
      <point x="330" y="408" type="line"/>
      <point x="343" y="450" type="line"/>
      <point x="79" y="450" type="line"/>
    </contour>
  </outline>
</glyph>
<glyph name="g" format="2">
  <advance width="470"/>
  <unicode hex="0067"/>
  <outline>
    <contour>
      <point x="127" y="-208" type="curve" smooth="yes"/>
      <point x="254" y="-208"/>
      <point x="366" y="-152"/>
      <point x="398" y="-72" type="curve" smooth="yes"/>
      <point x="415" y="-30"/>
      <point x="376" y="18"/>
      <point x="304" y="44" type="curve" smooth="yes"/>
      <point x="213" y="77"/>
      <point x="164" y="114"/>
      <point x="171" y="134" type="curve" smooth="yes"/>
      <point x="181" y="159"/>
      <point x="204" y="179"/>
      <point x="226" y="182" type="curve"/>
      <point x="182" y="191" type="line"/>
      <point x="148" y="176"/>
      <point x="116" y="143"/>
      <point x="105" y="111" type="curve" smooth="yes"/>
      <point x="91" y="71"/>
      <point x="110" y="32"/>
      <point x="152" y="17" type="curve" smooth="yes"/>
      <point x="261" y="-22"/>
      <point x="330" y="-70"/>
      <point x="320" y="-98" type="curve" smooth="yes"/>
      <point x="305" y="-139"/>
      <point x="246" y="-162"/>
      <point x="179" y="-167" type="curve" smooth="yes"/>
      <point x="52" y="-175"/>
      <point x="-16" y="-135"/>
      <point x="15" y="-57" type="curve" smooth="yes"/>
      <point x="36" y="-2"/>
      <point x="93" y="45"/>
      <point x="152" y="56" type="curve"/>
      <point x="134" y="78" type="line"/>
      <point x="36" y="56"/>
      <point x="-51" y="-6"/>
      <point x="-75" y="-73" type="curve" smooth="yes"/>
      <point x="-103" y="-152"/>
      <point x="-19" y="-208"/>
    </contour>
    <contour>
      <point x="195" y="163" type="curve" smooth="yes"/>
      <point x="276" y="163"/>
      <point x="356" y="223"/>
      <point x="387" y="307" type="curve" smooth="yes"/>
      <point x="431" y="424"/>
      <point x="406" y="507"/>
      <point x="327" y="507" type="curve" smooth="yes"/>
      <point x="238" y="507"/>
      <point x="150" y="442"/>
      <point x="116" y="351" type="curve" smooth="yes"/>
      <point x="74" y="241"/>
      <point x="107" y="163"/>
    </contour>
    <contour>
      <point x="206" y="201" type="curve" smooth="yes"/>
      <point x="163" y="201"/>
      <point x="160" y="264"/>
      <point x="199" y="367" type="curve" smooth="yes"/>
      <point x="224" y="432"/>
      <point x="272" y="468"/>
      <point x="315" y="468" type="curve" smooth="yes"/>
      <point x="349" y="468"/>
      <point x="344" y="401"/>
      <point x="302" y="292" type="curve" smooth="yes"/>
      <point x="280" y="233"/>
      <point x="240" y="201"/>
    </contour>
    <contour>
      <point x="335" y="353" type="curve"/>
      <point x="354" y="334" type="line"/>
      <point x="395" y="408"/>
      <point x="430" y="461"/>
      <point x="440" y="461" type="curve"/>
      <point x="452" y="461"/>
      <point x="464" y="454"/>
      <point x="469" y="445" type="curve"/>
      <point x="508" y="482" type="line"/>
      <point x="503" y="497"/>
      <point x="479" y="508"/>
      <point x="450" y="508" type="curve" smooth="yes"/>
      <point x="425" y="508"/>
      <point x="377" y="444"/>
    </contour>
  </outline>
</glyph>
<glyph name="h" format="2">
  <advance width="451"/>
  <unicode hex="0068"/>
  <outline>
    <contour>
      <point x="200" y="-8" type="curve" smooth="yes"/>
      <point x="266" y="-8"/>
      <point x="350" y="104"/>
      <point x="402" y="262" type="curve" smooth="yes"/>
      <point x="448" y="406"/>
      <point x="434" y="508"/>
      <point x="369" y="508" type="curve" smooth="yes"/>
      <point x="306" y="508"/>
      <point x="205" y="399"/>
      <point x="126" y="246" type="curve"/>
      <point x="150" y="228" type="line"/>
      <point x="205" y="349"/>
      <point x="271" y="434"/>
      <point x="310" y="434" type="curve" smooth="yes"/>
      <point x="367" y="434"/>
      <point x="375" y="346"/>
      <point x="328" y="207" type="curve" smooth="yes"/>
      <point x="299" y="120"/>
      <point x="267" y="59"/>
      <point x="251" y="59" type="curve" smooth="yes"/>
      <point x="211" y="59"/>
      <point x="252" y="106"/>
      <point x="212" y="106" type="curve" smooth="yes"/>
      <point x="191" y="106"/>
      <point x="172" y="95"/>
      <point x="167" y="80" type="curve" smooth="yes"/>
      <point x="149" y="28"/>
      <point x="162" y="-8"/>
    </contour>
    <contour>
      <point x="8" y="0" type="line"/>
      <point x="85" y="0" type="line"/>
      <point x="298" y="700" type="line"/>
      <point x="223" y="700" type="line"/>
    </contour>
    <contour>
      <point x="214" y="624" type="curve"/>
      <point x="223" y="700" type="line"/>
      <point x="109" y="700" type="line"/>
      <point x="101" y="662" type="line"/>
      <point x="155" y="665"/>
      <point x="202" y="649"/>
    </contour>
  </outline>
</glyph>
<glyph name="i" format="2">
  <advance width="272"/>
  <unicode hex="0069"/>
  <outline>
    <contour>
      <point x="226" y="612" type="curve" smooth="yes"/>
      <point x="257" y="612"/>
      <point x="288" y="633"/>
      <point x="296" y="659" type="curve" smooth="yes"/>
      <point x="304" y="685"/>
      <point x="286" y="706"/>
      <point x="255" y="706" type="curve" smooth="yes"/>
      <point x="224" y="706"/>
      <point x="194" y="685"/>
      <point x="186" y="659" type="curve" smooth="yes"/>
      <point x="178" y="633"/>
      <point x="195" y="612"/>
    </contour>
    <contour>
      <point x="133" y="323" type="curve" smooth="yes"/>
      <point x="67" y="143" type="line" smooth="yes"/>
      <point x="34" y="55"/>
      <point x="41" y="-8"/>
      <point x="85" y="-8" type="curve" smooth="yes"/>
      <point x="145" y="-8"/>
      <point x="225" y="86"/>
      <point x="278" y="218" type="curve"/>
      <point x="248" y="228" type="line"/>
      <point x="211" y="137"/>
      <point x="168" y="72"/>
      <point x="144" y="72" type="curve" smooth="yes"/>
      <point x="125" y="72"/>
      <point x="131" y="113"/>
      <point x="158" y="185" type="curve" smooth="yes"/>
      <point x="251" y="426" type="line" smooth="yes"/>
      <point x="271" y="474"/>
      <point x="259" y="508"/>
      <point x="224" y="508" type="curve" smooth="yes"/>
      <point x="151" y="508"/>
      <point x="65" y="418"/>
      <point x="16" y="290" type="curve"/>
      <point x="46" y="280" type="line"/>
      <point x="81" y="371"/>
      <point x="128" y="436"/>
      <point x="160" y="436" type="curve" smooth="yes"/>
      <point x="171" y="436"/>
      <point x="160" y="395"/>
    </contour>
  </outline>
</glyph>
<glyph name="k" format="2">
  <advance width="395"/>
  <unicode hex="006B"/>
  <outline>
    <contour>
      <point x="68" y="163" type="line"/>
      <point x="319" y="320" type="line" smooth="yes"/>
      <point x="373" y="354"/>
      <point x="409" y="418"/>
      <point x="407" y="461" type="curve"/>
      <point x="406" y="489"/>
      <point x="384" y="508"/>
      <point x="353" y="508" type="curve" smooth="yes"/>
      <point x="286" y="508"/>
      <point x="192" y="421"/>
      <point x="126" y="298" type="curve"/>
      <point x="128" y="243" type="line"/>
      <point x="184" y="355"/>
      <point x="261" y="434"/>
      <point x="314" y="434" type="curve" smooth="yes"/>
      <point x="326" y="434"/>
      <point x="335" y="431"/>
      <point x="335" y="413" type="curve" smooth="yes"/>
      <point x="335" y="390"/>
      <point x="311" y="359"/>
      <point x="277" y="338" type="curve" smooth="yes"/>
      <point x="64" y="206" type="line"/>
    </contour>
    <contour>
      <point x="-17" y="0" type="line"/>
      <point x="61" y="0" type="line"/>
      <point x="274" y="700" type="line"/>
      <point x="199" y="700" type="line"/>
    </contour>
    <contour>
      <point x="279" y="-8" type="curve" smooth="yes"/>
      <point x="315" y="-8"/>
      <point x="364" y="29"/>
      <point x="397" y="82" type="curve"/>
      <point x="376" y="107" type="line"/>
      <point x="360" y="86"/>
      <point x="343" y="70"/>
      <point x="335" y="69" type="curve" smooth="yes"/>
      <point x="308" y="66"/>
      <point x="259" y="160"/>
      <point x="240" y="311" type="curve"/>
      <point x="170" y="262" type="line"/>
      <point x="188" y="104"/>
      <point x="243" y="-8"/>
    </contour>
    <contour>
      <point x="190" y="624" type="curve"/>
      <point x="199" y="700" type="line"/>
      <point x="85" y="700" type="line"/>
      <point x="77" y="662" type="line"/>
      <point x="132" y="665"/>
      <point x="179" y="649"/>
    </contour>
  </outline>
</glyph>
<glyph name="l" format="2">
  <advance width="272"/>
  <unicode hex="006C"/>
  <outline>
    <contour>
      <point x="71" y="-8" type="curve" smooth="yes"/>
      <point x="134" y="-8"/>
      <point x="208" y="82"/>
      <point x="250" y="210" type="curve"/>
      <point x="220" y="220" type="line"/>
      <point x="189" y="129"/>
      <point x="150" y="64"/>
      <point x="128" y="64" type="curve" smooth="yes"/>
      <point x="108" y="64"/>
      <point x="112" y="108"/>
      <point x="137" y="185" type="curve"/>
      <point x="294" y="700" type="line"/>
      <point x="219" y="700" type="line"/>
      <point x="48" y="143" type="line"/>
      <point x="19" y="55"/>
      <point x="29" y="-8"/>
    </contour>
    <contour>
      <point x="210" y="624" type="curve"/>
      <point x="219" y="700" type="line"/>
      <point x="105" y="700" type="line"/>
      <point x="97" y="662" type="line"/>
      <point x="152" y="665"/>
      <point x="199" y="649"/>
    </contour>
  </outline>
</glyph>
<glyph name="m" format="2">
  <advance width="752"/>
  <unicode hex="006D"/>
  <outline>
    <contour>
      <point x="541" y="-8" type="curve" smooth="yes"/>
      <point x="601" y="-8"/>
      <point x="681" y="86"/>
      <point x="734" y="218" type="curve"/>
      <point x="704" y="228" type="line"/>
      <point x="667" y="137"/>
      <point x="624" y="72"/>
      <point x="600" y="72" type="curve" smooth="yes"/>
      <point x="581" y="72"/>
      <point x="587" y="113"/>
      <point x="614" y="185" type="curve" smooth="yes"/>
      <point x="631" y="230"/>
      <point x="659" y="298"/>
      <point x="682" y="359" type="curve" smooth="yes"/>
      <point x="715" y="446"/>
      <point x="701" y="508"/>
      <point x="649" y="508" type="curve" smooth="yes"/>
      <point x="589" y="508"/>
      <point x="490" y="417"/>
      <point x="413" y="288" type="curve"/>
      <point x="413" y="233" type="line"/>
      <point x="475" y="345"/>
      <point x="557" y="424"/>
      <point x="606" y="424" type="curve" smooth="yes"/>
      <point x="621" y="424"/>
      <point x="613" y="382"/>
      <point x="587" y="308" type="curve"/>
      <point x="523" y="143" type="line"/>
      <point x="490" y="55"/>
      <point x="497" y="-8"/>
    </contour>
    <contour>
      <point x="34" y="0" type="curve"/>
      <point x="109" y="0" type="line"/>
      <point x="203" y="250"/>
      <point x="280" y="448"/>
      <point x="249" y="365" type="curve" smooth="yes"/>
      <point x="280" y="449"/>
      <point x="271" y="508"/>
      <point x="228" y="508" type="curve" smooth="yes"/>
      <point x="167" y="508"/>
      <point x="89" y="418"/>
      <point x="40" y="290" type="curve"/>
      <point x="70" y="280" type="line"/>
      <point x="105" y="371"/>
      <point x="146" y="436"/>
      <point x="169" y="436" type="curve" smooth="yes"/>
      <point x="189" y="436"/>
      <point x="184" y="395"/>
      <point x="157" y="323" type="curve" smooth="yes"/>
      <point x="120" y="219"/>
      <point x="69" y="85"/>
    </contour>
    <contour>
      <point x="367" y="308" type="curve"/>
      <point x="245" y="0" type="line"/>
      <point x="320" y="0" type="line"/>
      <point x="337" y="45"/>
      <point x="439" y="298"/>
      <point x="462" y="359" type="curve" smooth="yes"/>
      <point x="495" y="446"/>
      <point x="481" y="508"/>
      <point x="429" y="508" type="curve" smooth="yes"/>
      <point x="372" y="508"/>
      <point x="274" y="417"/>
      <point x="197" y="288" type="curve"/>
      <point x="197" y="233" type="line"/>
      <point x="259" y="345"/>
      <point x="337" y="424"/>
      <point x="381" y="424" type="curve" smooth="yes"/>
      <point x="399" y="424"/>
      <point x="393" y="382"/>
    </contour>
  </outline>
</glyph>
<glyph name="r" format="2">
  <advance width="393"/>
  <unicode hex="0072"/>
  <outline>
    <contour>
      <point x="53" y="0" type="curve"/>
      <point x="128" y="0" type="line"/>
      <point x="200" y="250"/>
      <point x="255" y="448"/>
      <point x="231" y="365" type="curve" smooth="yes"/>
      <point x="255" y="449"/>
      <point x="247" y="508"/>
      <point x="203" y="508" type="curve" smooth="yes"/>
      <point x="144" y="508"/>
      <point x="74" y="418"/>
      <point x="34" y="290" type="curve"/>
      <point x="64" y="280" type="line"/>
      <point x="92" y="371"/>
      <point x="127" y="436"/>
      <point x="149" y="436" type="curve" smooth="yes"/>
      <point x="169" y="436"/>
      <point x="170" y="395"/>
      <point x="149" y="323" type="curve" smooth="yes"/>
      <point x="120" y="221"/>
      <point x="80" y="87"/>
    </contour>
    <contour>
      <point x="135" y="158" type="curve"/>
      <point x="141" y="110" type="line"/>
      <point x="217" y="292"/>
      <point x="298" y="420"/>
      <point x="337" y="420" type="curve"/>
      <point x="351" y="420"/>
      <point x="361" y="403"/>
      <point x="375" y="403" type="curve"/>
      <point x="402" y="403"/>
      <point x="429" y="425"/>
      <point x="440" y="456" type="curve" smooth="yes"/>
      <point x="451" y="486"/>
      <point x="420" y="508"/>
      <point x="364" y="508" type="curve" smooth="yes"/>
      <point x="320" y="508"/>
      <point x="225" y="363"/>
    </contour>
  </outline>
</glyph>
<glyph name="s" format="2">
  <advance width="393"/>
  <unicode hex="0073"/>
  <outline>
    <contour>
      <point x="225" y="95" type="curve" smooth="yes"/>
      <point x="209" y="51"/>
      <point x="178" y="30"/>
      <point x="150" y="30" type="curve" smooth="yes"/>
      <point x="110" y="30"/>
      <point x="96" y="63"/>
      <point x="117" y="124" type="curve" smooth="yes"/>
      <point x="122" y="137"/>
      <point x="119" y="147"/>
      <point x="110" y="147" type="curve" smooth="yes"/>
      <point x="76" y="147"/>
      <point x="45" y="128"/>
      <point x="36" y="100" type="curve" smooth="yes"/>
      <point x="14" y="37"/>
      <point x="52" y="-8"/>
      <point x="129" y="-8" type="curve" smooth="yes"/>
      <point x="207" y="-8"/>
      <point x="282" y="48"/>
      <point x="311" y="128" type="curve" smooth="yes"/>
      <point x="354" y="247"/>
      <point x="155" y="281"/>
      <point x="209" y="422" type="curve" smooth="yes"/>
      <point x="221" y="455"/>
      <point x="244" y="469"/>
      <point x="265" y="469" type="curve" smooth="yes"/>
      <point x="307" y="469"/>
      <point x="321" y="433"/>
      <point x="298" y="367" type="curve" smooth="yes"/>
      <point x="293" y="354"/>
      <point x="296" y="344"/>
      <point x="305" y="344" type="curve" smooth="yes"/>
      <point x="339" y="344"/>
      <point x="370" y="363"/>
      <point x="379" y="391" type="curve" smooth="yes"/>
      <point x="403" y="459"/>
      <point x="364" y="507"/>
      <point x="286" y="507" type="curve" smooth="yes"/>
      <point x="214" y="507"/>
      <point x="148" y="467"/>
      <point x="127" y="410" type="curve" smooth="yes"/>
      <point x="63" y="239"/>
      <point x="272" y="226"/>
    </contour>
  </outline>
</glyph>
<glyph name="u" format="2">
  <advance width="532"/>
  <unicode hex="0075"/>
  <anchor x="200" y="0" name="bottom"/>
  <anchor x="415" y="10" name="ogonek"/>
  <anchor x="332" y="435" name="top"/>
  <anchor x="577" y="435" name="topright"/>
  <outline>
    <contour>
      <point x="123" y="-8" type="curve" smooth="yes"/>
      <point x="181" y="-8"/>
      <point x="278" y="83"/>
      <point x="355" y="212" type="curve"/>
      <point x="355" y="267" type="line"/>
      <point x="293" y="155"/>
      <point x="214" y="76"/>
      <point x="166" y="76" type="curve" smooth="yes"/>
      <point x="151" y="76"/>
      <point x="159" y="118"/>
      <point x="185" y="192" type="curve" smooth="yes"/>
      <point x="185" y="189"/>
      <point x="212" y="258"/>
      <point x="249" y="357" type="curve" smooth="yes"/>
      <point x="282" y="445"/>
      <point x="283" y="508"/>
      <point x="251" y="508" type="curve" smooth="yes"/>
      <point x="179" y="508"/>
      <point x="91" y="414"/>
      <point x="38" y="282" type="curve"/>
      <point x="68" y="272" type="line"/>
      <point x="105" y="363"/>
      <point x="157" y="428"/>
      <point x="192" y="428" type="curve" smooth="yes"/>
      <point x="199" y="428"/>
      <point x="185" y="387"/>
      <point x="158" y="315" type="curve" smooth="yes"/>
      <point x="141" y="270"/>
      <point x="114" y="202"/>
      <point x="91" y="141" type="curve" smooth="yes"/>
      <point x="58" y="54"/>
      <point x="71" y="-8"/>
    </contour>
    <contour>
      <point x="324" y="-8" type="curve" smooth="yes"/>
      <point x="385" y="-8"/>
      <point x="463" y="82"/>
      <point x="512" y="210" type="curve"/>
      <point x="482" y="220" type="line"/>
      <point x="447" y="129"/>
      <point x="406" y="64"/>
      <point x="383" y="64" type="curve" smooth="yes"/>
      <point x="363" y="64"/>
      <point x="368" y="105"/>
      <point x="395" y="177" type="curve" smooth="yes"/>
      <point x="425" y="261"/>
      <point x="475" y="395"/>
      <point x="518" y="500" type="curve"/>
      <point x="443" y="500" type="line"/>
      <point x="349" y="250"/>
      <point x="272" y="52"/>
      <point x="303" y="135" type="curve" smooth="yes"/>
      <point x="272" y="51"/>
      <point x="281" y="-8"/>
    </contour>
  </outline>
</glyph>
<glyph name="v" format="2">
  <advance width="437"/>
  <unicode hex="0076"/>
  <outline>
    <contour>
      <point x="18" y="290" type="curve"/>
      <point x="48" y="280" type="line"/>
      <point x="81" y="371"/>
      <point x="122" y="436"/>
      <point x="147" y="436" type="curve" smooth="yes"/>
      <point x="185" y="436"/>
      <point x="196" y="409"/>
      <point x="180" y="357" type="curve" smooth="yes"/>
      <point x="170" y="324"/>
      <point x="92" y="216"/>
      <point x="78" y="176" type="curve" smooth="yes"/>
      <point x="40" y="68"/>
      <point x="74" y="-8"/>
      <point x="160" y="-8" type="curve" smooth="yes"/>
      <point x="241" y="-8"/>
      <point x="340" y="106"/>
      <point x="399" y="268" type="curve" smooth="yes"/>
      <point x="450" y="408"/>
      <point x="433" y="507"/>
      <point x="362" y="507" type="curve" smooth="yes"/>
      <point x="337" y="507"/>
      <point x="313" y="487"/>
      <point x="303" y="460" type="curve" smooth="yes"/>
      <point x="294" y="436"/>
      <point x="298" y="419"/>
      <point x="315" y="419" type="curve" smooth="yes"/>
      <point x="367" y="419"/>
      <point x="378" y="329"/>
      <point x="337" y="216" type="curve" smooth="yes"/>
      <point x="304" y="123"/>
      <point x="251" y="57"/>
      <point x="203" y="57" type="curve" smooth="yes"/>
      <point x="134" y="57"/>
      <point x="123" y="122"/>
      <point x="170" y="256" type="curve" smooth="yes"/>
      <point x="209" y="365"/>
      <point x="240" y="372"/>
      <point x="263" y="444" type="curve" smooth="yes"/>
      <point x="274" y="481"/>
      <point x="251" y="507"/>
      <point x="206" y="507" type="curve" smooth="yes"/>
      <point x="142" y="507"/>
      <point x="64" y="417"/>
    </contour>
  </outline>
</glyph>
<glyph name="x" format="2">
  <advance width="526"/>
  <unicode hex="0078"/>
  <outline>
    <contour>
      <point x="32" y="-3" type="curve" smooth="yes"/>
      <point x="114" y="-3"/>
      <point x="420" y="419"/>
      <point x="463" y="419" type="curve" smooth="yes"/>
      <point x="494" y="419"/>
      <point x="512" y="404"/>
      <point x="515" y="383" type="curve"/>
      <point x="567" y="452" type="line"/>
      <point x="552" y="485"/>
      <point x="526" y="508"/>
      <point x="510" y="508" type="curve" smooth="yes"/>
      <point x="450" y="508"/>
      <point x="116" y="91"/>
      <point x="89" y="91" type="curve" smooth="yes"/>
      <point x="72" y="91"/>
      <point x="60" y="108"/>
      <point x="52" y="132" type="curve"/>
      <point x="-12" y="77" type="line"/>
      <point x="-1" y="30"/>
      <point x="20" y="-3"/>
    </contour>
    <contour>
      <point x="305" y="-3" type="curve" smooth="yes"/>
      <point x="340" y="-3"/>
      <point x="393" y="30"/>
      <point x="432" y="77" type="curve"/>
      <point x="410" y="102" type="line"/>
      <point x="388" y="78"/>
      <point x="360" y="61"/>
      <point x="343" y="61" type="curve" smooth="yes"/>
      <point x="316" y="61"/>
      <point x="309" y="508"/>
      <point x="249" y="508" type="curve" smooth="yes"/>
      <point x="212" y="508"/>
      <point x="147" y="472"/>
      <point x="94" y="422" type="curve"/>
      <point x="96" y="383" type="line"/>
      <point x="120" y="416"/>
      <point x="159" y="439"/>
      <point x="191" y="439" type="curve" smooth="yes"/>
      <point x="234" y="439"/>
      <point x="223" y="-3"/>
    </contour>
  </outline>
</glyph>
<glyph name="y" format="2">
  <advance width="433"/>
  <unicode hex="0079"/>
  <outline>
    <contour>
      <point x="-43" y="-209" type="curve" smooth="yes"/>
      <point x="41" y="-209"/>
      <point x="100" y="-89"/>
      <point x="215" y="80" type="curve" smooth="yes"/>
      <point x="292" y="193"/>
      <point x="392" y="320"/>
      <point x="435" y="461" type="curve" smooth="yes"/>
      <point x="443" y="487"/>
      <point x="420" y="508"/>
      <point x="383" y="508" type="curve" smooth="yes"/>
      <point x="350" y="508"/>
      <point x="324" y="484"/>
      <point x="324" y="453" type="curve" smooth="yes"/>
      <point x="324" y="448"/>
      <point x="329" y="435"/>
      <point x="332" y="429" type="curve" smooth="yes"/>
      <point x="360" y="369"/>
      <point x="274" y="233"/>
      <point x="175" y="90" type="curve" smooth="yes"/>
      <point x="92" y="-29"/>
      <point x="35" y="-176"/>
      <point x="-29" y="-176" type="curve" smooth="yes"/>
      <point x="-57" y="-176"/>
      <point x="-64" y="-143"/>
      <point x="-49" y="-97" type="curve" smooth="yes"/>
      <point x="-42" y="-77"/>
      <point x="-45" y="-64"/>
      <point x="-56" y="-64" type="curve" smooth="yes"/>
      <point x="-88" y="-64"/>
      <point x="-117" y="-82"/>
      <point x="-126" y="-108" type="curve" smooth="yes"/>
      <point x="-146" y="-167"/>
      <point x="-112" y="-209"/>
    </contour>
    <contour>
      <point x="36" y="315" type="curve" smooth="yes"/>
      <point x="73" y="315" type="line"/>
      <point x="92" y="375"/>
      <point x="128" y="434"/>
      <point x="155" y="434" type="curve"/>
      <point x="190" y="434"/>
      <point x="182" y="236"/>
      <point x="146" y="37" type="curve"/>
      <point x="209" y="95" type="line"/>
      <point x="259" y="330"/>
      <point x="270" y="508"/>
      <point x="180" y="508" type="curve" smooth="yes"/>
      <point x="131" y="508"/>
      <point x="71" y="429"/>
    </contour>
  </outline>
</glyph>
<glyph name="AE" format="2">
  <advance width="817"/>
  <unicode hex="00C6"/>
  <outline>
    <contour>
      <point x="532" y="-2" type="curve" smooth="yes"/>
      <point x="669" y="0" type="line"/>
      <point x="778" y="131" type="line"/>
      <point x="764" y="149" type="line"/>
      <point x="696" y="82"/>
      <point x="638" y="44"/>
      <point x="613" y="44" type="curve" smooth="yes"/>
      <point x="577" y="44"/>
      <point x="519" y="44"/>
      <point x="501" y="44" type="curve" smooth="yes"/>
      <point x="470" y="44"/>
      <point x="452" y="66"/>
      <point x="459" y="96" type="curve" smooth="yes"/>
      <point x="466" y="126"/>
      <point x="583" y="623"/>
      <point x="586" y="635" type="curve" smooth="yes"/>
      <point x="590" y="653"/>
      <point x="613" y="665"/>
      <point x="641" y="665" type="curve" smooth="yes"/>
      <point x="658" y="665"/>
      <point x="695" y="665"/>
      <point x="710" y="665" type="curve" smooth="yes"/>
      <point x="745" y="665"/>
      <point x="782" y="613"/>
      <point x="801" y="539" type="curve"/>
      <point x="824" y="552" type="line"/>
      <point x="801" y="700" type="line"/>
      <point x="717" y="700"/>
      <point x="643" y="698"/>
      <point x="558" y="698" type="curve" smooth="yes"/>
      <point x="518" y="698"/>
      <point x="383" y="700"/>
      <point x="338" y="700" type="curve"/>
      <point x="331" y="672" type="line"/>
      <point x="375" y="672"/>
      <point x="437" y="672"/>
      <point x="461" y="672" type="curve" smooth="yes"/>
      <point x="489" y="672"/>
      <point x="507" y="661"/>
      <point x="500" y="633" type="curve" smooth="yes"/>
      <point x="483" y="559"/>
      <point x="388" y="157"/>
      <point x="378" y="116" type="curve" smooth="yes"/>
      <point x="368" y="70"/>
      <point x="343" y="38"/>
      <point x="317" y="38" type="curve" smooth="yes"/>
      <point x="290" y="38" type="line"/>
      <point x="283" y="0" type="line"/>
      <point x="318" y="0"/>
      <point x="363" y="2"/>
      <point x="394" y="2" type="curve" smooth="yes"/>
      <point x="424" y="2"/>
      <point x="498" y="-2"/>
    </contour>
    <contour>
      <point x="-39" y="0" type="line"/>
      <point x="204" y="0" type="line"/>
      <point x="211" y="38" type="line"/>
      <point x="196" y="38" type="line"/>
      <point x="163" y="38"/>
      <point x="146" y="68"/>
      <point x="168" y="108" type="curve"/>
      <point x="505" y="686" type="line"/>
      <point x="477" y="689" type="line"/>
      <point x="276" y="371"/>
      <point x="173" y="222"/>
      <point x="138" y="166" type="curve" smooth="yes"/>
      <point x="93" y="93"/>
      <point x="32" y="38"/>
      <point x="-9" y="38" type="curve" smooth="yes"/>
      <point x="-32" y="38" type="line"/>
    </contour>
    <contour>
      <point x="649" y="200" type="curve"/>
      <point x="672" y="200" type="line"/>
      <point x="685" y="271"/>
      <point x="708" y="371"/>
      <point x="728" y="442" type="curve"/>
      <point x="704" y="442" type="line"/>
      <point x="690" y="379"/>
      <point x="657" y="334"/>
      <point x="626" y="334" type="curve" smooth="yes"/>
      <point x="270" y="334" type="line"/>
      <point x="262" y="298" type="line"/>
      <point x="315" y="298"/>
      <point x="598" y="298"/>
      <point x="619" y="298" type="curve" smooth="yes"/>
      <point x="650" y="298"/>
      <point x="663" y="261"/>
    </contour>
  </outline>
</glyph>
<glyph name="OE" format="2">
  <advance width="997"/>
  <unicode hex="0152"/>
  <outline>
    <contour>
      <point x="284" y="-11" type="curve" smooth="yes"/>
      <point x="459" y="-11"/>
      <point x="616" y="136"/>
      <point x="665" y="345" type="curve" smooth="yes"/>
      <point x="715" y="564"/>
      <point x="628" y="719"/>
      <point x="455" y="719" type="curve" smooth="yes"/>
      <point x="285" y="719"/>
      <point x="129" y="564"/>
      <point x="78" y="345" type="curve" smooth="yes"/>
      <point x="30" y="136"/>
      <point x="115" y="-11"/>
    </contour>
    <contour>
      <point x="305" y="29" type="curve"/>
      <point x="192" y="29"/>
      <point x="148" y="171"/>
      <point x="197" y="385" type="curve" smooth="yes"/>
      <point x="238" y="563"/>
      <point x="339" y="679"/>
      <point x="442" y="679" type="curve" smooth="yes"/>
      <point x="554" y="679"/>
      <point x="598" y="530"/>
      <point x="546" y="306" type="curve" smooth="yes"/>
      <point x="507" y="138"/>
      <point x="407" y="29"/>
    </contour>
    <contour>
      <point x="808" y="200" type="curve"/>
      <point x="841" y="200" type="line"/>
      <point x="855" y="277"/>
      <point x="880" y="385"/>
      <point x="901" y="462" type="curve"/>
      <point x="868" y="462" type="line"/>
      <point x="853" y="399"/>
      <point x="820" y="354"/>
      <point x="789" y="354" type="curve" smooth="yes"/>
      <point x="611" y="354" type="line"/>
      <point x="607" y="304" type="line"/>
      <point x="661" y="304"/>
      <point x="765" y="304"/>
      <point x="786" y="304" type="curve" smooth="yes"/>
      <point x="813" y="304"/>
      <point x="822" y="261"/>
    </contour>
    <contour>
      <point x="436" y="54" type="curve"/>
      <point x="364" y="-1" type="line"/>
      <point x="860" y="-1" type="line"/>
      <point x="965" y="163" type="line"/>
      <point x="937" y="178" type="line"/>
      <point x="883" y="105"/>
      <point x="817" y="54"/>
      <point x="777" y="54" type="curve" smooth="yes"/>
      <point x="767" y="54"/>
      <point x="478" y="54"/>
    </contour>
    <contour>
      <point x="526" y="700" type="curve"/>
      <point x="539" y="645" type="line"/>
      <point x="571" y="645"/>
      <point x="879" y="645"/>
      <point x="886" y="645" type="curve" smooth="yes"/>
      <point x="938" y="645"/>
      <point x="965" y="598"/>
      <point x="949" y="531" type="curve"/>
      <point x="983" y="531" type="line"/>
      <point x="1022" y="700" type="line"/>
      <point x="965" y="700"/>
      <point x="570" y="700"/>
    </contour>
  </outline>
</glyph>
<glyph name="uni0308" format="2">
  <advance width="0"/>
  <unicode hex="0308"/>
  <anchor x="220" y="435" name="_top"/>
  <anchor x="288" y="693" name="top"/>
  <outline>
    <contour>
      <point x="193" y="581" type="curve" smooth="yes"/>
      <point x="218" y="581"/>
      <point x="238" y="606"/>
      <point x="238" y="637" type="curve" smooth="yes"/>
      <point x="238" y="668"/>
      <point x="218" y="693"/>
      <point x="193" y="693" type="curve" smooth="yes"/>
      <point x="167" y="693"/>
      <point x="147" y="668"/>
      <point x="147" y="637" type="curve" smooth="yes"/>
      <point x="147" y="606"/>
      <point x="167" y="581"/>
    </contour>
    <contour>
      <point x="349" y="581" type="curve" smooth="yes"/>
      <point x="375" y="581"/>
      <point x="395" y="606"/>
      <point x="395" y="637" type="curve" smooth="yes"/>
      <point x="395" y="668"/>
      <point x="375" y="693"/>
      <point x="349" y="693" type="curve" smooth="yes"/>
      <point x="324" y="693"/>
      <point x="304" y="668"/>
      <point x="304" y="637" type="curve" smooth="yes"/>
      <point x="304" y="606"/>
      <point x="324" y="581"/>
    </contour>
  </outline>
</glyph>
<glyph name="N.alt" format="2">
  <advance width="795"/>
  <outline>
    <contour>
      <point x="299" y="609" type="curve" smooth="yes"/>
      <point x="551" y="-1" type="line"/>
      <point x="618" y="-1" type="line"/>
      <point x="760" y="614" type="line" smooth="yes"/>
      <point x="773" y="672"/>
      <point x="828" y="672"/>
      <point x="849" y="672" type="curve" smooth="yes"/>
      <point x="870" y="672"/>
      <point x="894" y="672"/>
      <point x="917" y="672" type="curve"/>
      <point x="924" y="700" type="line"/>
      <point x="562" y="700" type="line"/>
      <point x="555" y="672" type="line"/>
      <point x="653" y="672" type="line" smooth="yes"/>
      <point x="671" y="672"/>
      <point x="707" y="647"/>
      <point x="700" y="616" type="curve" smooth="yes"/>
      <point x="693" y="585"/>
      <point x="625" y="289"/>
      <point x="586" y="119" type="curve"/>
      <point x="605" y="101" type="line"/>
      <point x="348" y="702" type="line"/>
      <point x="143" y="702" type="line"/>
      <point x="137" y="674" type="line"/>
      <point x="241" y="674" type="line" smooth="yes"/>
      <point x="268" y="674"/>
      <point x="289" y="632"/>
    </contour>
    <contour>
      <point x="-49" y="4" type="line"/>
      <point x="353" y="4" type="line"/>
      <point x="359" y="28" type="line"/>
      <point x="322" y="28"/>
      <point x="280" y="28"/>
      <point x="247" y="28" type="curve" smooth="yes"/>
      <point x="214" y="28"/>
      <point x="203" y="66"/>
      <point x="213" y="108" type="curve" smooth="yes"/>
      <point x="333" y="627" type="line"/>
      <point x="295" y="702" type="line"/>
      <point x="290" y="702" type="line"/>
      <point x="276" y="640"/>
      <point x="152" y="105"/>
      <point x="150" y="94" type="curve" smooth="yes"/>
      <point x="146" y="77"/>
      <point x="123" y="32"/>
      <point x="94" y="32" type="curve" smooth="yes"/>
      <point x="-43" y="32" type="line"/>
    </contour>
  </outline>
</glyph>
<glyph name="_source" format="2">
  <advance width="20002"/>
  <outline>
    <contour>
      <point x="-1485" y="-210" type="curve" smooth="yes"/>
      <point x="-1414" y="-210"/>
      <point x="-1364" y="-117"/>
      <point x="-1364" y="15" type="curve" smooth="yes"/>
      <point x="-1364" y="109"/>
      <point x="-1374" y="459"/>
      <point x="-1374" y="523" type="curve" smooth="yes"/>
      <point x="-1374" y="614"/>
      <point x="-1355" y="678"/>
      <point x="-1328" y="678" type="curve" smooth="yes"/>
      <point x="-1279" y="678"/>
      <point x="-1245" y="649"/>
      <point x="-1245" y="608" type="curve"/>
      <point x="-1172" y="614" type="line"/>
      <point x="-1172" y="680"/>
      <point x="-1222" y="726"/>
      <point x="-1292" y="726" type="curve" smooth="yes"/>
      <point x="-1386" y="726"/>
      <point x="-1452" y="636"/>
      <point x="-1452" y="509" type="curve" smooth="yes"/>
      <point x="-1452" y="421"/>
      <point x="-1442" y="14"/>
      <point x="-1442" y="-19" type="curve" smooth="yes"/>
      <point x="-1442" y="-97"/>
      <point x="-1452" y="-153"/>
      <point x="-1467" y="-153" type="curve" smooth="yes"/>
      <point x="-1500" y="-153"/>
      <point x="-1524" y="-132"/>
      <point x="-1524" y="-102" type="curve"/>
      <point x="-1590" y="-99" type="line"/>
      <point x="-1590" y="-164"/>
      <point x="-1546" y="-210"/>
    </contour>
    <contour>
      <point x="-8329" y="-3" type="curve" smooth="yes"/>
      <point x="-8294" y="-3"/>
      <point x="-8219" y="77"/>
      <point x="-8148" y="190" type="curve"/>
      <point x="-8170" y="208" type="line"/>
      <point x="-8218" y="136"/>
      <point x="-8269" y="85"/>
      <point x="-8292" y="85" type="curve" smooth="yes"/>
      <point x="-8311" y="85"/>
      <point x="-8324" y="127"/>
      <point x="-8324" y="186" type="curve" smooth="yes"/>
      <point x="-8324" y="348"/>
      <point x="-8273" y="463"/>
      <point x="-8200" y="463" type="curve" smooth="yes"/>
      <point x="-8186" y="463"/>
      <point x="-8157" y="451"/>
      <point x="-8130" y="435" type="curve"/>
      <point x="-8107" y="484" type="line"/>
      <point x="-8134" y="501"/>
      <point x="-8167" y="513"/>
      <point x="-8187" y="513" type="curve" smooth="yes"/>
      <point x="-8319" y="513"/>
      <point x="-8413" y="363"/>
      <point x="-8413" y="152" type="curve" smooth="yes"/>
      <point x="-8413" y="61"/>
      <point x="-8378" y="-3"/>
    </contour>
    <contour>
      <point x="-8129" y="-6" type="curve" smooth="yes"/>
      <point x="-8065" y="-6"/>
      <point x="-8010" y="88"/>
      <point x="-7997" y="220" type="curve"/>
      <point x="-8027" y="220" type="line"/>
      <point x="-8034" y="142"/>
      <point x="-8060" y="87"/>
      <point x="-8089" y="87" type="curve" smooth="yes"/>
      <point x="-8101" y="87"/>
      <point x="-8107" y="128"/>
      <point x="-8103" y="187" type="curve" smooth="yes"/>
      <point x="-8099" y="248"/>
      <point x="-8087" y="573"/>
      <point x="-8076" y="701" type="curve"/>
      <point x="-8151" y="701" type="line"/>
      <point x="-8182" y="145" type="line" smooth="yes"/>
      <point x="-8188" y="57"/>
      <point x="-8166" y="-6"/>
    </contour>
    <contour>
      <point x="-8132" y="610" type="curve"/>
      <point x="-8151" y="701" type="line"/>
      <point x="-8265" y="702" type="line"/>
      <point x="-8255" y="648" type="line"/>
      <point x="-8201" y="651"/>
      <point x="-8150" y="635"/>
    </contour>
    <contour>
      <point x="-7629" y="-3" type="curve" smooth="yes"/>
      <point x="-7594" y="-3"/>
      <point x="-7519" y="77"/>
      <point x="-7448" y="190" type="curve"/>
      <point x="-7470" y="208" type="line"/>
      <point x="-7518" y="136"/>
      <point x="-7569" y="85"/>
      <point x="-7592" y="85" type="curve" smooth="yes"/>
      <point x="-7611" y="85"/>
      <point x="-7624" y="127"/>
      <point x="-7624" y="186" type="curve" smooth="yes"/>
      <point x="-7624" y="348"/>
      <point x="-7573" y="463"/>
      <point x="-7500" y="463" type="curve" smooth="yes"/>
      <point x="-7486" y="463"/>
      <point x="-7457" y="451"/>
      <point x="-7430" y="435" type="curve"/>
      <point x="-7407" y="484" type="line"/>
      <point x="-7434" y="501"/>
      <point x="-7467" y="513"/>
      <point x="-7487" y="513" type="curve" smooth="yes"/>
      <point x="-7619" y="513"/>
      <point x="-7713" y="363"/>
      <point x="-7713" y="152" type="curve" smooth="yes"/>
      <point x="-7713" y="61"/>
      <point x="-7678" y="-3"/>
    </contour>
    <contour>
      <point x="-7198" y="0" type="curve"/>
      <point x="-7123" y="0" type="line"/>
      <point x="-7147" y="-357"/>
      <point x="-7135" y="-206"/>
      <point x="-7094" y="365" type="curve" smooth="yes"/>
      <point x="-7088" y="453"/>
      <point x="-7110" y="516"/>
      <point x="-7147" y="516" type="curve" smooth="yes"/>
      <point x="-7211" y="516"/>
      <point x="-7266" y="422"/>
      <point x="-7279" y="290" type="curve"/>
      <point x="-7249" y="290" type="line"/>
      <point x="-7242" y="368"/>
      <point x="-7216" y="423"/>
      <point x="-7187" y="423" type="curve" smooth="yes"/>
      <point x="-7175" y="423"/>
      <point x="-7169" y="382"/>
      <point x="-7173" y="323" type="curve" smooth="yes"/>
      <point x="-7176" y="275"/>
      <point x="-7186" y="142"/>
    </contour>
    <contour>
      <point x="-7429" y="0" type="curve" smooth="yes"/>
      <point x="-7365" y="0"/>
      <point x="-7310" y="94"/>
      <point x="-7297" y="226" type="curve"/>
      <point x="-7327" y="226" type="line"/>
      <point x="-7334" y="148"/>
      <point x="-7360" y="93"/>
      <point x="-7389" y="93" type="curve" smooth="yes"/>
      <point x="-7401" y="93"/>
      <point x="-7407" y="134"/>
      <point x="-7403" y="193" type="curve" smooth="yes"/>
      <point x="-7399" y="254"/>
      <point x="-7389" y="388"/>
      <point x="-7378" y="516" type="curve"/>
      <point x="-7453" y="516" type="line"/>
      <point x="-7429" y="873"/>
      <point x="-7441" y="722"/>
      <point x="-7482" y="151" type="curve" smooth="yes"/>
      <point x="-7488" y="63"/>
      <point x="-7466" y="0"/>
    </contour>
    <contour>
      <point x="-6960" y="308" type="curve" smooth="yes"/>
      <point x="-6986" y="0" type="line"/>
      <point x="-6912" y="0" type="line"/>
      <point x="-6909" y="45"/>
      <point x="-6882" y="298"/>
      <point x="-6878" y="359" type="curve" smooth="yes"/>
      <point x="-6872" y="451"/>
      <point x="-6905" y="516"/>
      <point x="-6957" y="516" type="curve" smooth="yes"/>
      <point x="-7014" y="516"/>
      <point x="-7081" y="422"/>
      <point x="-7120" y="288" type="curve"/>
      <point x="-7107" y="243" type="line"/>
      <point x="-7080" y="348"/>
      <point x="-7034" y="422"/>
      <point x="-6995" y="422" type="curve" smooth="yes"/>
      <point x="-6971" y="422"/>
      <point x="-6956" y="375"/>
    </contour>
    <contour>
      <point x="-6697" y="-8" type="curve" smooth="yes"/>
      <point x="-6633" y="-8"/>
      <point x="-6578" y="86"/>
      <point x="-6565" y="218" type="curve"/>
      <point x="-6595" y="218" type="line"/>
      <point x="-6602" y="140"/>
      <point x="-6628" y="85"/>
      <point x="-6657" y="85" type="curve" smooth="yes"/>
      <point x="-6669" y="85"/>
      <point x="-6675" y="126"/>
      <point x="-6671" y="185" type="curve" smooth="yes"/>
      <point x="-6659" y="359" type="line" smooth="yes"/>
      <point x="-6653" y="451"/>
      <point x="-6686" y="516"/>
      <point x="-6738" y="516" type="curve" smooth="yes"/>
      <point x="-6795" y="516"/>
      <point x="-6862" y="422"/>
      <point x="-6901" y="288" type="curve"/>
      <point x="-6888" y="243" type="line"/>
      <point x="-6861" y="348"/>
      <point x="-6815" y="422"/>
      <point x="-6776" y="422" type="curve" smooth="yes"/>
      <point x="-6752" y="422"/>
      <point x="-6737" y="375"/>
      <point x="-6741" y="308" type="curve" smooth="yes"/>
      <point x="-6750" y="168"/>
      <point x="-6754" y="100"/>
      <point x="-6750" y="143" type="curve"/>
      <point x="-6756" y="55"/>
      <point x="-6734" y="-8"/>
    </contour>
    <contour>
      <point x="-6404" y="-9" type="curve" smooth="yes"/>
      <point x="-6330" y="-9"/>
      <point x="-6257" y="58"/>
      <point x="-6229" y="152" type="curve"/>
      <point x="-6268" y="176" type="line"/>
      <point x="-6295" y="108"/>
      <point x="-6342" y="60"/>
      <point x="-6382" y="60" type="curve" smooth="yes"/>
      <point x="-6423" y="60"/>
      <point x="-6449" y="118"/>
      <point x="-6445" y="199" type="curve" smooth="yes"/>
      <point x="-6437" y="353"/>
      <point x="-6407" y="459"/>
      <point x="-6373" y="454" type="curve" smooth="yes"/>
      <point x="-6347" y="451"/>
      <point x="-6329" y="425"/>
      <point x="-6329" y="391" type="curve" smooth="yes"/>
      <point x="-6329" y="315"/>
      <point x="-6392" y="261"/>
      <point x="-6480" y="261" type="curve"/>
      <point x="-6489" y="202" type="line"/>
      <point x="-6343" y="235"/>
      <point x="-6239" y="326"/>
      <point x="-6239" y="421" type="curve" smooth="yes"/>
      <point x="-6239" y="477"/>
      <point x="-6283" y="517"/>
      <point x="-6346" y="517" type="curve" smooth="yes"/>
      <point x="-6439" y="517"/>
      <point x="-6517" y="369"/>
      <point x="-6535" y="160" type="curve" smooth="yes"/>
      <point x="-6543" y="61"/>
      <point x="-6489" y="-9"/>
    </contour>
    <contour>
      <point x="-6118" y="0" type="curve"/>
      <point x="-6043" y="0" type="line"/>
      <point x="-6067" y="-357"/>
      <point x="-6055" y="-206"/>
      <point x="-6014" y="365" type="curve" smooth="yes"/>
      <point x="-6008" y="453"/>
      <point x="-6030" y="516"/>
      <point x="-6067" y="516" type="curve" smooth="yes"/>
      <point x="-6131" y="516"/>
      <point x="-6186" y="422"/>
      <point x="-6199" y="290" type="curve"/>
      <point x="-6169" y="290" type="line"/>
      <point x="-6162" y="368"/>
      <point x="-6136" y="423"/>
      <point x="-6107" y="423" type="curve" smooth="yes"/>
      <point x="-6095" y="423"/>
      <point x="-6089" y="382"/>
      <point x="-6093" y="323" type="curve" smooth="yes"/>
      <point x="-6096" y="275"/>
      <point x="-6106" y="142"/>
    </contour>
    <contour>
      <point x="-5836" y="-8" type="curve" smooth="yes"/>
      <point x="-5772" y="-8"/>
      <point x="-5717" y="86"/>
      <point x="-5704" y="218" type="curve"/>
      <point x="-5734" y="218" type="line"/>
      <point x="-5741" y="140"/>
      <point x="-5767" y="85"/>
      <point x="-5796" y="85" type="curve" smooth="yes"/>
      <point x="-5808" y="85"/>
      <point x="-5814" y="126"/>
      <point x="-5810" y="185" type="curve" smooth="yes"/>
      <point x="-5798" y="359" type="line" smooth="yes"/>
      <point x="-5792" y="451"/>
      <point x="-5825" y="516"/>
      <point x="-5877" y="516" type="curve" smooth="yes"/>
      <point x="-5934" y="516"/>
      <point x="-6001" y="422"/>
      <point x="-6040" y="288" type="curve"/>
      <point x="-6027" y="243" type="line"/>
      <point x="-6000" y="348"/>
      <point x="-5954" y="422"/>
      <point x="-5915" y="422" type="curve" smooth="yes"/>
      <point x="-5891" y="422"/>
      <point x="-5876" y="375"/>
      <point x="-5880" y="308" type="curve" smooth="yes"/>
      <point x="-5889" y="168"/>
      <point x="-5893" y="100"/>
      <point x="-5889" y="143" type="curve"/>
      <point x="-5895" y="55"/>
      <point x="-5873" y="-8"/>
    </contour>
    <contour>
      <point x="-5482" y="-6" type="curve" smooth="yes"/>
      <point x="-5418" y="-6"/>
      <point x="-5363" y="88"/>
      <point x="-5350" y="220" type="curve"/>
      <point x="-5380" y="220" type="line"/>
      <point x="-5387" y="142"/>
      <point x="-5413" y="87"/>
      <point x="-5442" y="87" type="curve" smooth="yes"/>
      <point x="-5454" y="87"/>
      <point x="-5460" y="128"/>
      <point x="-5456" y="187" type="curve" smooth="yes"/>
      <point x="-5452" y="248"/>
      <point x="-5440" y="573"/>
      <point x="-5429" y="701" type="curve"/>
      <point x="-5504" y="701" type="line"/>
      <point x="-5535" y="145" type="line" smooth="yes"/>
      <point x="-5541" y="57"/>
      <point x="-5519" y="-6"/>
    </contour>
    <contour>
      <point x="-5226" y="-239" type="line"/>
      <point x="-4937" y="-239" type="line"/>
      <point x="-4937" y="-211" type="line"/>
      <point x="-5051" y="-211" type="line"/>
      <point x="-5094" y="558" type="line"/>
      <point x="-5158" y="552" type="line"/>
      <point x="-5130" y="-211" type="line"/>
      <point x="-5227" y="-211" type="line"/>
    </contour>
    <contour>
      <point x="-5485" y="610" type="curve"/>
      <point x="-5504" y="701" type="line"/>
      <point x="-5618" y="702" type="line"/>
      <point x="-5608" y="648" type="line"/>
      <point x="-5554" y="651"/>
      <point x="-5503" y="635"/>
    </contour>
    <contour>
      <point x="-5068" y="52" type="curve"/>
      <point x="-5067" y="19" type="line"/>
      <point x="-4927" y="-40"/>
      <point x="-4828" y="70"/>
      <point x="-4828" y="285" type="curve" smooth="yes"/>
      <point x="-4828" y="396"/>
      <point x="-4909" y="474"/>
      <point x="-5024" y="474" type="curve" smooth="yes"/>
      <point x="-5110" y="474"/>
      <point x="-5214" y="399"/>
      <point x="-5276" y="293" type="curve"/>
      <point x="-5251" y="267" type="line"/>
      <point x="-5193" y="359"/>
      <point x="-5111" y="424"/>
      <point x="-5052" y="424" type="curve" smooth="yes"/>
      <point x="-4974" y="424"/>
      <point x="-4918" y="354"/>
      <point x="-4918" y="255" type="curve" smooth="yes"/>
      <point x="-4918" y="82"/>
      <point x="-4980" y="-2"/>
    </contour>
    <contour>
      <point x="-4720" y="0" type="curve"/>
      <point x="-4645" y="0" type="line"/>
      <point x="-4669" y="-357"/>
      <point x="-4657" y="-206"/>
      <point x="-4616" y="365" type="curve" smooth="yes"/>
      <point x="-4610" y="453"/>
      <point x="-4632" y="516"/>
      <point x="-4669" y="516" type="curve" smooth="yes"/>
      <point x="-4733" y="516"/>
      <point x="-4788" y="422"/>
      <point x="-4801" y="290" type="curve"/>
      <point x="-4771" y="290" type="line"/>
      <point x="-4764" y="368"/>
      <point x="-4738" y="423"/>
      <point x="-4709" y="423" type="curve" smooth="yes"/>
      <point x="-4697" y="423"/>
      <point x="-4691" y="382"/>
      <point x="-4695" y="323" type="curve" smooth="yes"/>
      <point x="-4699" y="262"/>
      <point x="-4709" y="128"/>
    </contour>
    <contour>
      <point x="-4643" y="167" type="line"/>
      <point x="-4610" y="303"/>
      <point x="-4560" y="399"/>
      <point x="-4522" y="399" type="curve" smooth="yes"/>
      <point x="-4496" y="399"/>
      <point x="-4462" y="382"/>
      <point x="-4441" y="359" type="curve"/>
      <point x="-4384" y="433" type="line"/>
      <point x="-4413" y="481"/>
      <point x="-4454" y="515"/>
      <point x="-4483" y="515" type="curve" smooth="yes"/>
      <point x="-4542" y="515"/>
      <point x="-4613" y="387"/>
      <point x="-4654" y="205" type="curve"/>
      <point x="-4642" y="173" type="line"/>
    </contour>
    <contour>
      <point x="-4240" y="-226" type="curve" smooth="yes"/>
      <point x="-4169" y="-226"/>
      <point x="-4119" y="-133"/>
      <point x="-4119" y="-1" type="curve" smooth="yes"/>
      <point x="-4119" y="93"/>
      <point x="-4129" y="443"/>
      <point x="-4129" y="507" type="curve" smooth="yes"/>
      <point x="-4129" y="598"/>
      <point x="-4110" y="662"/>
      <point x="-4083" y="662" type="curve" smooth="yes"/>
      <point x="-4034" y="662"/>
      <point x="-4000" y="633"/>
      <point x="-4000" y="592" type="curve"/>
      <point x="-3927" y="598" type="line"/>
      <point x="-3927" y="664"/>
      <point x="-3977" y="710"/>
      <point x="-4047" y="710" type="curve" smooth="yes"/>
      <point x="-4141" y="710"/>
      <point x="-4207" y="620"/>
      <point x="-4207" y="493" type="curve" smooth="yes"/>
      <point x="-4207" y="405"/>
      <point x="-4197" y="-2"/>
      <point x="-4197" y="-35" type="curve" smooth="yes"/>
      <point x="-4197" y="-113"/>
      <point x="-4207" y="-169"/>
      <point x="-4222" y="-169" type="curve" smooth="yes"/>
      <point x="-4255" y="-169"/>
      <point x="-4279" y="-148"/>
      <point x="-4279" y="-118" type="curve"/>
      <point x="-4345" y="-115" type="line"/>
      <point x="-4345" y="-180"/>
      <point x="-4301" y="-226"/>
    </contour>
    <contour>
      <point x="-3684" y="0" type="curve" smooth="yes"/>
      <point x="-3620" y="0"/>
      <point x="-3565" y="94"/>
      <point x="-3552" y="226" type="curve"/>
      <point x="-3582" y="226" type="line"/>
      <point x="-3589" y="148"/>
      <point x="-3615" y="93"/>
      <point x="-3644" y="93" type="curve" smooth="yes"/>
      <point x="-3656" y="93"/>
      <point x="-3662" y="134"/>
      <point x="-3658" y="193" type="curve" smooth="yes"/>
      <point x="-3633" y="599" type="line"/>
      <point x="-3708" y="599" type="line"/>
      <point x="-3739" y="137"/>
      <point x="-3751" y="-49"/>
      <point x="-3737" y="151" type="curve" smooth="yes"/>
      <point x="-3743" y="63"/>
      <point x="-3721" y="0"/>
    </contour>
    <contour>
      <point x="-3818" y="438" type="line"/>
      <point x="-3554" y="438" type="line"/>
      <point x="-3554" y="480" type="line"/>
      <point x="-3818" y="480" type="line"/>
    </contour>
    <contour>
      <point x="-3382" y="0" type="curve" smooth="yes"/>
      <point x="-3318" y="0"/>
      <point x="-3263" y="94"/>
      <point x="-3250" y="226" type="curve"/>
      <point x="-3280" y="226" type="line"/>
      <point x="-3287" y="148"/>
      <point x="-3313" y="93"/>
      <point x="-3342" y="93" type="curve" smooth="yes"/>
      <point x="-3354" y="93"/>
      <point x="-3360" y="134"/>
      <point x="-3356" y="193" type="curve" smooth="yes"/>
      <point x="-3341" y="381" type="line"/>
      <point x="-3339" y="460"/>
      <point x="-3361" y="516"/>
      <point x="-3395" y="516" type="curve" smooth="yes"/>
      <point x="-3459" y="516"/>
      <point x="-3514" y="422"/>
      <point x="-3527" y="290" type="curve"/>
      <point x="-3497" y="290" type="line"/>
      <point x="-3490" y="368"/>
      <point x="-3464" y="423"/>
      <point x="-3435" y="423" type="curve" smooth="yes"/>
      <point x="-3423" y="423"/>
      <point x="-3417" y="382"/>
      <point x="-3421" y="323" type="curve" smooth="yes"/>
      <point x="-3436" y="132" type="line"/>
      <point x="-3438" y="55"/>
      <point x="-3416" y="0"/>
    </contour>
    <contour>
      <point x="-3419" y="612" type="curve" smooth="yes"/>
      <point x="-3387" y="612"/>
      <point x="-3364" y="631"/>
      <point x="-3364" y="659" type="curve" smooth="yes"/>
      <point x="-3364" y="687"/>
      <point x="-3387" y="706"/>
      <point x="-3419" y="706" type="curve" smooth="yes"/>
      <point x="-3451" y="706"/>
      <point x="-3474" y="687"/>
      <point x="-3474" y="659" type="curve" smooth="yes"/>
      <point x="-3474" y="631"/>
      <point x="-3451" y="612"/>
    </contour>
    <contour>
      <point x="-2867" y="-8" type="curve" smooth="yes"/>
      <point x="-2774" y="-8"/>
      <point x="-2709" y="86"/>
      <point x="-2709" y="220" type="curve" smooth="yes"/>
      <point x="-2709" y="389"/>
      <point x="-2787" y="508"/>
      <point x="-2898" y="508" type="curve" smooth="yes"/>
      <point x="-2991" y="508"/>
      <point x="-3057" y="410"/>
      <point x="-3057" y="272" type="curve" smooth="yes"/>
      <point x="-3057" y="108"/>
      <point x="-2978" y="-8"/>
    </contour>
    <contour>
      <point x="-2866" y="62" type="curve" smooth="yes"/>
      <point x="-2925" y="62"/>
      <point x="-2967" y="161"/>
      <point x="-2967" y="302" type="curve" smooth="yes"/>
      <point x="-2967" y="382"/>
      <point x="-2938" y="438"/>
      <point x="-2898" y="438" type="curve" smooth="yes"/>
      <point x="-2840" y="438"/>
      <point x="-2799" y="335"/>
      <point x="-2799" y="190" type="curve" smooth="yes"/>
      <point x="-2799" y="115"/>
      <point x="-2827" y="62"/>
    </contour>
    <contour>
      <point x="-2513" y="-9" type="curve" smooth="yes"/>
      <point x="-2439" y="-9"/>
      <point x="-2366" y="58"/>
      <point x="-2338" y="152" type="curve"/>
      <point x="-2377" y="176" type="line"/>
      <point x="-2404" y="108"/>
      <point x="-2451" y="60"/>
      <point x="-2491" y="60" type="curve" smooth="yes"/>
      <point x="-2532" y="60"/>
      <point x="-2558" y="118"/>
      <point x="-2554" y="199" type="curve" smooth="yes"/>
      <point x="-2546" y="353"/>
      <point x="-2516" y="459"/>
      <point x="-2482" y="454" type="curve" smooth="yes"/>
      <point x="-2456" y="451"/>
      <point x="-2438" y="425"/>
      <point x="-2438" y="391" type="curve" smooth="yes"/>
      <point x="-2438" y="387" type="line"/>
      <point x="-2348" y="419" type="line"/>
      <point x="-2348" y="421" type="line" smooth="yes"/>
      <point x="-2348" y="477"/>
      <point x="-2392" y="517"/>
      <point x="-2455" y="517" type="curve" smooth="yes"/>
      <point x="-2548" y="517"/>
      <point x="-2626" y="369"/>
      <point x="-2644" y="160" type="curve" smooth="yes"/>
      <point x="-2652" y="61"/>
      <point x="-2598" y="-9"/>
    </contour>
    <contour>
      <point x="-1965" y="-7" type="curve" smooth="yes"/>
      <point x="-1908" y="-7"/>
      <point x="-1841" y="87"/>
      <point x="-1802" y="221" type="curve"/>
      <point x="-1815" y="266" type="line"/>
      <point x="-1843" y="155"/>
      <point x="-1898" y="77"/>
      <point x="-1947" y="77" type="curve" smooth="yes"/>
      <point x="-1966" y="77"/>
      <point x="-1972" y="128"/>
      <point x="-1962" y="201" type="curve" smooth="yes"/>
      <point x="-1954" y="264"/>
      <point x="-1946" y="333"/>
      <point x="-1943" y="366" type="curve" smooth="yes"/>
      <point x="-1937" y="454"/>
      <point x="-1959" y="517"/>
      <point x="-1996" y="517" type="curve" smooth="yes"/>
      <point x="-2060" y="517"/>
      <point x="-2115" y="423"/>
      <point x="-2128" y="291" type="curve"/>
      <point x="-2098" y="291" type="line"/>
      <point x="-2091" y="369"/>
      <point x="-2065" y="424"/>
      <point x="-2036" y="424" type="curve" smooth="yes"/>
      <point x="-2021" y="424"/>
      <point x="-2015" y="383"/>
      <point x="-2022" y="324" type="curve" smooth="yes"/>
      <point x="-2044" y="150" type="line"/>
      <point x="-2050" y="58"/>
      <point x="-2017" y="-7"/>
    </contour>
    <contour>
      <point x="-1775" y="-7" type="curve" smooth="yes"/>
      <point x="-1711" y="-7"/>
      <point x="-1656" y="87"/>
      <point x="-1643" y="219" type="curve"/>
      <point x="-1673" y="219" type="line"/>
      <point x="-1680" y="141"/>
      <point x="-1706" y="86"/>
      <point x="-1735" y="86" type="curve" smooth="yes"/>
      <point x="-1747" y="86"/>
      <point x="-1753" y="127"/>
      <point x="-1749" y="186" type="curve" smooth="yes"/>
      <point x="-1746" y="234"/>
      <point x="-1736" y="367"/>
      <point x="-1724" y="509" type="curve"/>
      <point x="-1799" y="509" type="line"/>
      <point x="-1775" y="866"/>
      <point x="-1787" y="715"/>
      <point x="-1828" y="144" type="curve" smooth="yes"/>
      <point x="-1834" y="56"/>
      <point x="-1812" y="-7"/>
    </contour>
    <contour>
      <point x="-1565" y="408" type="line"/>
      <point x="-1301" y="408" type="line"/>
      <point x="-1301" y="450" type="line"/>
      <point x="-1565" y="450" type="line"/>
    </contour>
    <contour>
      <point x="-1003" y="0" type="line"/>
      <point x="-924" y="0" type="line"/>
      <point x="-920" y="61"/>
      <point x="-910" y="573"/>
      <point x="-899" y="701" type="curve"/>
      <point x="-974" y="701" type="line"/>
    </contour>
    <contour>
      <point x="-797" y="-5" type="curve" smooth="yes"/>
      <point x="-711" y="-5"/>
      <point x="-651" y="108"/>
      <point x="-651" y="267" type="curve" smooth="yes"/>
      <point x="-651" y="373"/>
      <point x="-698" y="453"/>
      <point x="-764" y="460" type="curve" smooth="yes"/>
      <point x="-832" y="467"/>
      <point x="-912" y="354"/>
      <point x="-956" y="187" type="curve"/>
      <point x="-922" y="169" type="line"/>
      <point x="-898" y="289"/>
      <point x="-846" y="374"/>
      <point x="-796" y="374" type="curve" smooth="yes"/>
      <point x="-751" y="374"/>
      <point x="-719" y="306"/>
      <point x="-719" y="211" type="curve" smooth="yes"/>
      <point x="-719" y="114"/>
      <point x="-739" y="46"/>
      <point x="-768" y="46" type="curve" smooth="yes"/>
      <point x="-799" y="46"/>
      <point x="-834" y="63"/>
      <point x="-853" y="87" type="curve"/>
      <point x="-878" y="45" type="line"/>
      <point x="-865" y="16"/>
      <point x="-831" y="-5"/>
    </contour>
    <contour>
      <point x="-955" y="610" type="curve"/>
      <point x="-974" y="701" type="line"/>
      <point x="-1088" y="702" type="line"/>
      <point x="-1078" y="648" type="line"/>
      <point x="-1024" y="651"/>
      <point x="-973" y="635"/>
    </contour>
    <contour>
      <point x="-374" y="0" type="line"/>
      <point x="-370" y="61"/>
      <point x="-360" y="573"/>
      <point x="-349" y="701" type="curve"/>
      <point x="-424" y="701" type="line"/>
      <point x="-450" y="41" type="line"/>
    </contour>
    <contour>
      <point x="-347" y="-5" type="curve" smooth="yes"/>
      <point x="-223" y="-5"/>
      <point x="-121" y="108"/>
      <point x="-101" y="267" type="curve" smooth="yes"/>
      <point x="-88" y="372"/>
      <point x="-135" y="452"/>
      <point x="-214" y="460" type="curve" smooth="yes"/>
      <point x="-282" y="467"/>
      <point x="-362" y="354"/>
      <point x="-406" y="187" type="curve"/>
      <point x="-372" y="169" type="line"/>
      <point x="-348" y="289"/>
      <point x="-296" y="374"/>
      <point x="-246" y="374" type="curve" smooth="yes"/>
      <point x="-181" y="374"/>
      <point x="-149" y="306"/>
      <point x="-169" y="211" type="curve" smooth="yes"/>
      <point x="-189" y="114"/>
      <point x="-250" y="46"/>
      <point x="-318" y="46" type="curve" smooth="yes"/>
      <point x="-347" y="46"/>
      <point x="-382" y="70"/>
      <point x="-403" y="105" type="curve"/>
      <point x="-449" y="40" type="line"/>
      <point x="-411" y="14"/>
      <point x="-369" y="-5"/>
    </contour>
    <contour>
      <point x="-405" y="610" type="curve"/>
      <point x="-424" y="701" type="line"/>
      <point x="-538" y="702" type="line"/>
      <point x="-528" y="648" type="line"/>
      <point x="-474" y="651"/>
      <point x="-423" y="635"/>
    </contour>
    <contour>
      <point x="1052" y="-241" type="curve"/>
      <point x="1174" y="-247"/>
      <point x="1260" y="-189"/>
      <point x="1260" y="-100" type="curve" smooth="yes"/>
      <point x="1260" y="-52"/>
      <point x="1220" y="-8"/>
      <point x="1164" y="6" type="curve" smooth="yes"/>
      <point x="1054" y="35"/>
      <point x="968" y="72"/>
      <point x="968" y="88" type="curve" smooth="yes"/>
      <point x="968" y="115"/>
      <point x="987" y="139"/>
      <point x="1001" y="154" type="curve"/>
      <point x="964" y="163" type="line"/>
      <point x="938" y="129"/>
      <point x="921" y="103"/>
      <point x="920" y="83" type="curve" smooth="yes"/>
      <point x="918" y="39"/>
      <point x="946" y="0"/>
      <point x="987" y="-11" type="curve" smooth="yes"/>
      <point x="1105" y="-41"/>
      <point x="1189" y="-89"/>
      <point x="1190" y="-126" type="curve" smooth="yes"/>
      <point x="1191" y="-162"/>
      <point x="1142" y="-191"/>
      <point x="1071" y="-196" type="curve" smooth="yes"/>
      <point x="953" y="-204"/>
      <point x="871" y="-158"/>
      <point x="873" y="-85" type="curve" smooth="yes"/>
      <point x="874" y="-48"/>
      <point x="922" y="-6"/>
      <point x="988" y="18" type="curve"/>
      <point x="958" y="45" type="line"/>
      <point x="853" y="9"/>
      <point x="783" y="-52"/>
      <point x="788" y="-101" type="curve" smooth="yes"/>
      <point x="796" y="-192"/>
      <point x="905" y="-250"/>
    </contour>
    <contour>
      <point x="1009" y="135" type="curve"/>
      <point x="1079" y="132"/>
      <point x="1130" y="192"/>
      <point x="1133" y="279" type="curve" smooth="yes"/>
      <point x="1136" y="399"/>
      <point x="1076" y="482"/>
      <point x="988" y="479" type="curve" smooth="yes"/>
      <point x="911" y="476"/>
      <point x="853" y="411"/>
      <point x="849" y="323" type="curve" smooth="yes"/>
      <point x="844" y="206"/>
      <point x="910" y="128"/>
    </contour>
    <contour>
      <point x="1006" y="184" type="curve"/>
      <point x="960" y="182"/>
      <point x="927" y="246"/>
      <point x="927" y="339" type="curve" smooth="yes"/>
      <point x="927" y="394"/>
      <point x="946" y="434"/>
      <point x="974" y="435" type="curve" smooth="yes"/>
      <point x="1020" y="437"/>
      <point x="1053" y="366"/>
      <point x="1053" y="264" type="curve" smooth="yes"/>
      <point x="1053" y="215"/>
      <point x="1034" y="182"/>
    </contour>
    <contour>
      <point x="1059" y="404" type="curve"/>
      <point x="1086" y="377" type="line"/>
      <point x="1106" y="397"/>
      <point x="1135" y="413"/>
      <point x="1156" y="415" type="curve" smooth="yes"/>
      <point x="1173" y="416"/>
      <point x="1197" y="405"/>
      <point x="1213" y="389" type="curve"/>
      <point x="1235" y="411" type="line"/>
      <point x="1215" y="454"/>
      <point x="1187" y="484"/>
      <point x="1167" y="484" type="curve" smooth="yes"/>
      <point x="1121" y="484"/>
      <point x="1076" y="451"/>
    </contour>
    <contour>
      <point x="1404" y="-259" type="curve" smooth="yes"/>
      <point x="1464" y="-259"/>
      <point x="1517" y="-152"/>
      <point x="1529" y="0" type="curve" smooth="yes"/>
      <point x="1556" y="346" type="line" smooth="yes"/>
      <point x="1563" y="434"/>
      <point x="1540" y="497"/>
      <point x="1503" y="497" type="curve" smooth="yes"/>
      <point x="1439" y="497"/>
      <point x="1384" y="403"/>
      <point x="1371" y="271" type="curve"/>
      <point x="1401" y="271" type="line"/>
      <point x="1408" y="349"/>
      <point x="1434" y="404"/>
      <point x="1463" y="404" type="curve" smooth="yes"/>
      <point x="1475" y="404"/>
      <point x="1481" y="363"/>
      <point x="1477" y="304" type="curve" smooth="yes"/>
      <point x="1474" y="256"/>
      <point x="1466" y="142"/>
      <point x="1454" y="0" type="curve" smooth="yes"/>
      <point x="1444" y="-126"/>
      <point x="1432" y="-215"/>
      <point x="1424" y="-215" type="curve" smooth="yes"/>
      <point x="1402" y="-215"/>
      <point x="1383" y="-196"/>
      <point x="1379" y="-168" type="curve"/>
      <point x="1308" y="-171" type="line"/>
      <point x="1325" y="-223"/>
      <point x="1364" y="-259"/>
    </contour>
    <contour>
      <point x="1486" y="612" type="curve" smooth="yes"/>
      <point x="1518" y="612"/>
      <point x="1541" y="631"/>
      <point x="1541" y="659" type="curve" smooth="yes"/>
      <point x="1541" y="687"/>
      <point x="1518" y="706"/>
      <point x="1486" y="706" type="curve" smooth="yes"/>
      <point x="1454" y="706"/>
      <point x="1431" y="687"/>
      <point x="1431" y="659" type="curve" smooth="yes"/>
      <point x="1431" y="631"/>
      <point x="1454" y="612"/>
    </contour>
    <contour>
      <point x="1660" y="385" type="curve" smooth="yes"/>
      <point x="1648" y="316" type="line"/>
      <point x="1697" y="323" type="line"/>
      <point x="1705" y="369" type="line" smooth="yes"/>
      <point x="1708" y="386"/>
      <point x="1729" y="398"/>
      <point x="1756" y="398" type="curve" smooth="yes"/>
      <point x="1784" y="398"/>
      <point x="1804" y="375"/>
      <point x="1804" y="342" type="curve" smooth="yes"/>
      <point x="1804" y="309"/>
      <point x="1767" y="219"/>
      <point x="1767" y="179" type="curve" smooth="yes"/>
      <point x="1767" y="72"/>
      <point x="1824" y="-4"/>
      <point x="1905" y="-4" type="curve" smooth="yes"/>
      <point x="1995" y="-4"/>
      <point x="2059" y="110"/>
      <point x="2059" y="271" type="curve" smooth="yes"/>
      <point x="2059" y="405"/>
      <point x="2015" y="500"/>
      <point x="1952" y="500" type="curve" smooth="yes"/>
      <point x="1923" y="500"/>
      <point x="1903" y="475"/>
      <point x="1903" y="440" type="curve" smooth="yes"/>
      <point x="1903" y="413"/>
      <point x="1914" y="394"/>
      <point x="1930" y="394" type="curve" smooth="yes"/>
      <point x="1983" y="394"/>
      <point x="2020" y="321"/>
      <point x="2020" y="219" type="curve" smooth="yes"/>
      <point x="2020" y="149"/>
      <point x="1978" y="100"/>
      <point x="1918" y="100" type="curve" smooth="yes"/>
      <point x="1869" y="100"/>
      <point x="1834" y="166"/>
      <point x="1834" y="259" type="curve" smooth="yes"/>
      <point x="1834" y="355"/>
      <point x="1869" y="409"/>
      <point x="1869" y="454" type="curve" smooth="yes"/>
      <point x="1869" y="481"/>
      <point x="1846" y="500"/>
      <point x="1813" y="500" type="curve" smooth="yes"/>
      <point x="1735" y="500"/>
      <point x="1671" y="452"/>
    </contour>
    <contour>
      <point x="3383" y="-105" type="curve" smooth="yes"/>
      <point x="3579" y="-105"/>
      <point x="3729" y="20"/>
      <point x="3729" y="195" type="curve" smooth="yes"/>
      <point x="3729" y="259"/>
      <point x="3695" y="356"/>
      <point x="3648" y="431" type="curve"/>
      <point x="3578" y="437" type="line"/>
      <point x="3638" y="355"/>
      <point x="3679" y="250"/>
      <point x="3679" y="174" type="curve" smooth="yes"/>
      <point x="3679" y="43"/>
      <point x="3584" y="-29"/>
      <point x="3436" y="-29" type="curve"/>
      <point x="3197" y="-29"/>
      <point x="3030" y="95"/>
      <point x="3030" y="279" type="curve" smooth="yes"/>
      <point x="3030" y="353"/>
      <point x="3072" y="385"/>
      <point x="3132" y="385" type="curve" smooth="yes"/>
      <point x="3181" y="385"/>
      <point x="3215" y="372"/>
      <point x="3215" y="353" type="curve" smooth="yes"/>
      <point x="3215" y="331"/>
      <point x="3185" y="315"/>
      <point x="3143" y="315" type="curve" smooth="yes"/>
      <point x="3058" y="315"/>
      <point x="2998" y="422"/>
      <point x="2998" y="573" type="curve" smooth="yes"/>
      <point x="2998" y="644"/>
      <point x="3039" y="694"/>
      <point x="3098" y="694" type="curve" smooth="yes"/>
      <point x="3161" y="694"/>
      <point x="3219" y="658"/>
      <point x="3237" y="608" type="curve"/>
      <point x="3333" y="652" type="line"/>
      <point x="3315" y="715"/>
      <point x="3256" y="759"/>
      <point x="3191" y="759" type="curve" smooth="yes"/>
      <point x="3040" y="759"/>
      <point x="2934" y="668"/>
      <point x="2934" y="540" type="curve" smooth="yes"/>
      <point x="2934" y="383"/>
      <point x="3012" y="272"/>
      <point x="3123" y="272" type="curve" smooth="yes"/>
      <point x="3197" y="272"/>
      <point x="3261" y="325"/>
      <point x="3261" y="389" type="curve" smooth="yes"/>
      <point x="3261" y="425"/>
      <point x="3225" y="450"/>
      <point x="3173" y="450" type="curve" smooth="yes"/>
      <point x="3065" y="450"/>
      <point x="2966" y="347"/>
      <point x="2966" y="215" type="curve" smooth="yes"/>
      <point x="2966" y="28"/>
      <point x="3139" y="-105"/>
    </contour>
    <contour>
      <point x="3485" y="242" type="curve" smooth="yes"/>
      <point x="3548" y="350" type="line"/>
      <point x="3452" y="358"/>
      <point x="3384" y="381"/>
      <point x="3384" y="405" type="curve" smooth="yes"/>
      <point x="3384" y="433"/>
      <point x="3410" y="453"/>
      <point x="3446" y="453" type="curve" smooth="yes"/>
      <point x="3479" y="453"/>
      <point x="3701" y="386"/>
      <point x="3743" y="386" type="curve" smooth="yes"/>
      <point x="3795" y="386"/>
      <point x="3831" y="463"/>
      <point x="3831" y="573" type="curve" smooth="yes"/>
      <point x="3831" y="666"/>
      <point x="3760" y="732"/>
      <point x="3659" y="732" type="curve"/>
      <point x="3575" y="610" type="line"/>
      <point x="3587" y="612"/>
      <point x="3604" y="613"/>
      <point x="3616" y="613" type="curve" smooth="yes"/>
      <point x="3716" y="613"/>
      <point x="3786" y="579"/>
      <point x="3786" y="531" type="curve" smooth="yes"/>
      <point x="3786" y="484"/>
      <point x="3766" y="451"/>
      <point x="3738" y="451" type="curve" smooth="yes"/>
      <point x="3716" y="451"/>
      <point x="3543" y="541"/>
      <point x="3509" y="541" type="curve" smooth="yes"/>
      <point x="3409" y="541"/>
      <point x="3339" y="475"/>
      <point x="3339" y="381" type="curve" smooth="yes"/>
      <point x="3339" y="315"/>
      <point x="3399" y="257"/>
    </contour>
    <contour>
      <point x="2316" y="113" type="curve" smooth="yes"/>
      <point x="2316" y="45"/>
      <point x="2360" y="-3"/>
      <point x="2421" y="-3" type="curve" smooth="yes"/>
      <point x="2508" y="-3"/>
      <point x="2570" y="51"/>
      <point x="2570" y="128" type="curve" smooth="yes"/>
      <point x="2570" y="313"/>
      <point x="2412" y="281"/>
      <point x="2412" y="407" type="curve" smooth="yes"/>
      <point x="2412" y="448"/>
      <point x="2429" y="477"/>
      <point x="2453" y="477" type="curve" smooth="yes"/>
      <point x="2484" y="477"/>
      <point x="2506" y="452"/>
      <point x="2506" y="416" type="curve" smooth="yes"/>
      <point x="2506" y="404"/>
      <point x="2514" y="396"/>
      <point x="2525" y="396" type="curve" smooth="yes"/>
      <point x="2558" y="396"/>
      <point x="2581" y="408"/>
      <point x="2581" y="424" type="curve" smooth="yes"/>
      <point x="2581" y="473"/>
      <point x="2534" y="507"/>
      <point x="2468" y="507" type="curve" smooth="yes"/>
      <point x="2388" y="507"/>
      <point x="2332" y="453"/>
      <point x="2332" y="377" type="curve" smooth="yes"/>
      <point x="2332" y="193"/>
      <point x="2490" y="215"/>
      <point x="2490" y="98" type="curve" smooth="yes"/>
      <point x="2490" y="56"/>
      <point x="2467" y="27"/>
      <point x="2435" y="27" type="curve" smooth="yes"/>
      <point x="2407" y="27"/>
      <point x="2388" y="64"/>
      <point x="2388" y="116" type="curve" smooth="yes"/>
      <point x="2388" y="128"/>
      <point x="2379" y="137"/>
      <point x="2367" y="137" type="curve" smooth="yes"/>
      <point x="2337" y="137"/>
      <point x="2316" y="127"/>
    </contour>
    <contour>
      <point x="3910" y="-3" type="curve" smooth="yes"/>
      <point x="3992" y="-3"/>
      <point x="4169" y="419"/>
      <point x="4212" y="419" type="curve" smooth="yes"/>
      <point x="4243" y="419"/>
      <point x="4271" y="404"/>
      <point x="4280" y="383" type="curve"/>
      <point x="4311" y="452" type="line"/>
      <point x="4286" y="485"/>
      <point x="4258" y="508"/>
      <point x="4242" y="508" type="curve" smooth="yes"/>
      <point x="4182" y="508"/>
      <point x="3975" y="91"/>
      <point x="3948" y="91" type="curve" smooth="yes"/>
      <point x="3931" y="91"/>
      <point x="3909" y="108"/>
      <point x="3894" y="132" type="curve"/>
      <point x="3847" y="77" type="line"/>
      <point x="3872" y="30"/>
      <point x="3898" y="-3"/>
    </contour>
    <contour>
      <point x="4188" y="-3" type="curve" smooth="yes"/>
      <point x="4223" y="-3"/>
      <point x="4266" y="30"/>
      <point x="4291" y="77" type="curve"/>
      <point x="4264" y="92" type="line"/>
      <point x="4249" y="68"/>
      <point x="4227" y="51"/>
      <point x="4210" y="51" type="curve" smooth="yes"/>
      <point x="4183" y="51"/>
      <point x="4036" y="508"/>
      <point x="3976" y="508" type="curve" smooth="yes"/>
      <point x="3939" y="508"/>
      <point x="3885" y="472"/>
      <point x="3847" y="422" type="curve"/>
      <point x="3858" y="393" type="line"/>
      <point x="3872" y="426"/>
      <point x="3904" y="449"/>
      <point x="3936" y="449" type="curve" smooth="yes"/>
      <point x="3979" y="449"/>
      <point x="4106" y="-3"/>
    </contour>
    <contour>
      <point x="4668" y="-209" type="curve" smooth="yes"/>
      <point x="4718" y="-209"/>
      <point x="4826" y="-94"/>
      <point x="4902" y="80" type="curve" smooth="yes"/>
      <point x="4950" y="189"/>
      <point x="4985" y="320"/>
      <point x="4985" y="461" type="curve" smooth="yes"/>
      <point x="4985" y="490"/>
      <point x="4966" y="510"/>
      <point x="4938" y="510" type="curve" smooth="yes"/>
      <point x="4912" y="510"/>
      <point x="4887" y="485"/>
      <point x="4912" y="452" type="curve" smooth="yes"/>
      <point x="4958" y="392"/>
      <point x="4923" y="228"/>
      <point x="4858" y="90" type="curve" smooth="yes"/>
      <point x="4804" y="-26"/>
      <point x="4768" y="-124"/>
      <point x="4666" y="-124" type="curve" smooth="yes"/>
      <point x="4648" y="-124"/>
      <point x="4644" y="-71"/>
      <point x="4625" y="-71" type="curve" smooth="yes"/>
      <point x="4598" y="-71"/>
      <point x="4579" y="-102"/>
      <point x="4579" y="-146" type="curve" smooth="yes"/>
      <point x="4579" y="-183"/>
      <point x="4616" y="-209"/>
    </contour>
    <contour>
      <point x="4651" y="315" type="curve" smooth="yes"/>
      <point x="4688" y="315" type="line"/>
      <point x="4688" y="375"/>
      <point x="4706" y="434"/>
      <point x="4733" y="434" type="curve"/>
      <point x="4768" y="434"/>
      <point x="4821" y="236"/>
      <point x="4846" y="37" type="curve"/>
      <point x="4875" y="99" type="line"/>
      <point x="4853" y="334"/>
      <point x="4825" y="510"/>
      <point x="4735" y="510" type="curve" smooth="yes"/>
      <point x="4686" y="510"/>
      <point x="4651" y="429"/>
    </contour>
    <contour>
      <point x="5391" y="-230" type="line"/>
      <point x="5645" y="-230" type="line"/>
      <point x="5645" y="-202" type="line"/>
      <point x="5631" y="-202"/>
      <point x="5619" y="-202"/>
      <point x="5602" y="-202" type="curve" smooth="yes"/>
      <point x="5558" y="-202"/>
      <point x="5527" y="-160"/>
      <point x="5527" y="-101" type="curve" smooth="yes"/>
      <point x="5527" y="18"/>
      <point x="5517" y="335"/>
      <point x="5517" y="396" type="curve" smooth="yes"/>
      <point x="5517" y="401"/>
      <point x="5523" y="435"/>
      <point x="5532" y="479" type="curve"/>
      <point x="5513" y="491"/>
      <point x="5478" y="500"/>
      <point x="5449" y="500" type="curve" smooth="yes"/>
      <point x="5300" y="500"/>
      <point x="5194" y="365"/>
      <point x="5194" y="175" type="curve" smooth="yes"/>
      <point x="5194" y="68"/>
      <point x="5224" y="-7"/>
      <point x="5266" y="-7" type="curve" smooth="yes"/>
      <point x="5336" y="-7"/>
      <point x="5425" y="58"/>
      <point x="5482" y="150" type="curve"/>
      <point x="5474" y="185" type="line"/>
      <point x="5439" y="126"/>
      <point x="5375" y="84"/>
      <point x="5320" y="84" type="curve" smooth="yes"/>
      <point x="5278" y="84"/>
      <point x="5248" y="137"/>
      <point x="5248" y="213" type="curve" smooth="yes"/>
      <point x="5248" y="335"/>
      <point x="5306" y="421"/>
      <point x="5389" y="421" type="curve" smooth="yes"/>
      <point x="5424" y="421"/>
      <point x="5448" y="377"/>
      <point x="5448" y="316" type="curve" smooth="yes"/>
      <point x="5448" y="259"/>
      <point x="5458" y="-98"/>
      <point x="5458" y="-124" type="curve" smooth="yes"/>
      <point x="5458" y="-170"/>
      <point x="5442" y="-202"/>
      <point x="5420" y="-202" type="curve" smooth="yes"/>
      <point x="5390" y="-202" type="line"/>
    </contour>
    <contour>
      <point x="17665" y="7497" type="line"/>
      <point x="17665" y="8826" type="line"/>
      <point x="19110" y="8826" type="line"/>
      <point x="19110" y="4591" type="line"/>
      <point x="18614" y="4591" type="line"/>
      <point x="18166" y="7962" type="line"/>
    </contour>
    <contour>
      <point x="19892" y="8474" type="curve"/>
      <point x="20284" y="8795" type="line"/>
      <point x="21376" y="8795"/>
      <point x="22018" y="6636"/>
      <point x="21592" y="6636" type="curve" smooth="yes"/>
      <point x="21166" y="6636"/>
      <point x="20257" y="6274"/>
      <point x="21485" y="6274" type="curve" smooth="yes"/>
      <point x="22713" y="6274"/>
      <point x="23011" y="4231"/>
      <point x="21310" y="4231" type="curve"/>
      <point x="20062" y="4870" type="line"/>
      <point x="20345" y="4944"/>
      <point x="20746" y="4594"/>
      <point x="20910" y="5093" type="curve" smooth="yes"/>
      <point x="21074" y="5592"/>
      <point x="19950" y="6236"/>
      <point x="19950" y="6653" type="curve" smooth="yes"/>
      <point x="19950" y="7070"/>
      <point x="20922" y="7115"/>
      <point x="20922" y="7611" type="curve" smooth="yes"/>
      <point x="20922" y="8107"/>
      <point x="19892" y="8115"/>
    </contour>
    <contour>
      <point x="5980" y="702" type="line"/>
      <point x="5975" y="702" type="line"/>
      <point x="5975" y="640"/>
      <point x="5975" y="105"/>
      <point x="5975" y="94" type="curve" smooth="yes"/>
      <point x="5975" y="77"/>
      <point x="5963" y="32"/>
      <point x="5934" y="32" type="curve" smooth="yes"/>
      <point x="5797" y="32" type="line"/>
      <point x="5797" y="4" type="line"/>
      <point x="6199" y="4" type="line"/>
      <point x="6199" y="28" type="line"/>
      <point x="6162" y="28"/>
      <point x="6120" y="28"/>
      <point x="6087" y="28" type="curve" smooth="yes"/>
      <point x="6054" y="28"/>
      <point x="6035" y="66"/>
      <point x="6035" y="108" type="curve" smooth="yes"/>
      <point x="6035" y="627" type="line"/>
    </contour>
    <contour>
      <point x="5828" y="702" type="line"/>
      <point x="5828" y="674" type="line"/>
      <point x="5932" y="674" type="line" smooth="yes"/>
      <point x="5959" y="674"/>
      <point x="5990" y="632"/>
      <point x="6005" y="609" type="curve" smooth="yes"/>
      <point x="6398" y="-1" type="line"/>
      <point x="6465" y="-1" type="line"/>
      <point x="6465" y="614" type="line" smooth="yes"/>
      <point x="6465" y="672"/>
      <point x="6520" y="672"/>
      <point x="6541" y="672" type="curve" smooth="yes"/>
      <point x="6562" y="672"/>
      <point x="6586" y="672"/>
      <point x="6609" y="672" type="curve"/>
      <point x="6609" y="700" type="line"/>
      <point x="6247" y="700" type="line"/>
      <point x="6247" y="672" type="line"/>
      <point x="6345" y="672" type="line" smooth="yes"/>
      <point x="6363" y="672"/>
      <point x="6405" y="647"/>
      <point x="6405" y="616" type="curve" smooth="yes"/>
      <point x="6405" y="585"/>
      <point x="6405" y="289"/>
      <point x="6405" y="119" type="curve"/>
      <point x="6429" y="101" type="line"/>
      <point x="6033" y="702" type="line"/>
    </contour>
    <contour>
      <point x="6792" y="-200" type="curve"/>
      <point x="6808" y="-223" type="line"/>
      <point x="6881" y="-162"/>
      <point x="6933" y="-73"/>
      <point x="6933" y="-9" type="curve" smooth="yes"/>
      <point x="6933" y="92"/>
      <point x="6885" y="164"/>
      <point x="6816" y="164" type="curve" smooth="yes"/>
      <point x="6779" y="164"/>
      <point x="6753" y="140"/>
      <point x="6753" y="105" type="curve" smooth="yes"/>
      <point x="6753" y="64"/>
      <point x="6775" y="35"/>
      <point x="6806" y="35" type="curve" smooth="yes"/>
      <point x="6854" y="35"/>
      <point x="6888" y="-5"/>
      <point x="6888" y="-61" type="curve" smooth="yes"/>
      <point x="6888" y="-93"/>
      <point x="6848" y="-151"/>
    </contour>
    <contour>
      <point x="8130" y="171" type="line"/>
      <point x="8130" y="111" type="line"/>
      <point x="8392" y="111" type="line"/>
      <point x="8418" y="160" type="line"/>
      <point x="8378" y="199" type="line"/>
      <point x="8259" y="200" type="line"/>
    </contour>
    <contour>
      <point x="7346" y="12" type="curve" smooth="yes"/>
      <point x="7387" y="12"/>
      <point x="7420" y="53"/>
      <point x="7420" y="103" type="curve" smooth="yes"/>
      <point x="7420" y="153"/>
      <point x="7387" y="194"/>
      <point x="7346" y="194" type="curve" smooth="yes"/>
      <point x="7305" y="194"/>
      <point x="7272" y="153"/>
      <point x="7272" y="103" type="curve" smooth="yes"/>
      <point x="7272" y="53"/>
      <point x="7305" y="12"/>
    </contour>
    <contour>
      <point x="7511" y="-130" type="curve"/>
      <point x="7518" y="-157" type="line"/>
      <point x="7608" y="-123"/>
      <point x="7676" y="-57"/>
      <point x="7698" y="3" type="curve" smooth="yes"/>
      <point x="7731" y="99"/>
      <point x="7710" y="182"/>
      <point x="7645" y="206" type="curve" smooth="yes"/>
      <point x="7610" y="218"/>
      <point x="7578" y="204"/>
      <point x="7566" y="171" type="curve" smooth="yes"/>
      <point x="7552" y="132"/>
      <point x="7563" y="98"/>
      <point x="7593" y="87" type="curve" smooth="yes"/>
      <point x="7638" y="71"/>
      <point x="7667" y="22"/>
      <point x="7648" y="-31" type="curve" smooth="yes"/>
      <point x="7637" y="-61"/>
      <point x="7580" y="-102"/>
    </contour>
    <contour>
      <point x="7602" y="348" type="curve"/>
      <point x="7639" y="340"/>
      <point x="7675" y="357"/>
      <point x="7681" y="387" type="curve" smooth="yes"/>
      <point x="7687" y="415"/>
      <point x="7660" y="445"/>
      <point x="7623" y="453" type="curve" smooth="yes"/>
      <point x="7585" y="461"/>
      <point x="7549" y="444"/>
      <point x="7543" y="415" type="curve" smooth="yes"/>
      <point x="7537" y="386"/>
      <point x="7563" y="356"/>
    </contour>
    <contour>
      <point x="7902" y="348" type="curve"/>
      <point x="7939" y="340"/>
      <point x="7975" y="357"/>
      <point x="7981" y="387" type="curve" smooth="yes"/>
      <point x="7987" y="415"/>
      <point x="7960" y="445"/>
      <point x="7923" y="453" type="curve" smooth="yes"/>
      <point x="7885" y="461"/>
      <point x="7849" y="444"/>
      <point x="7843" y="415" type="curve" smooth="yes"/>
      <point x="7837" y="386"/>
      <point x="7863" y="356"/>
    </contour>
    <contour>
      <point x="7892" y="8" type="curve"/>
      <point x="7929" y="0"/>
      <point x="7965" y="17"/>
      <point x="7971" y="47" type="curve" smooth="yes"/>
      <point x="7977" y="75"/>
      <point x="7950" y="105"/>
      <point x="7913" y="113" type="curve" smooth="yes"/>
      <point x="7875" y="121"/>
      <point x="7839" y="104"/>
      <point x="7833" y="75" type="curve" smooth="yes"/>
      <point x="7827" y="46"/>
      <point x="7853" y="16"/>
    </contour>
    <contour>
      <point x="9486" y="413" type="curve" smooth="yes"/>
      <point x="9523" y="413" type="line"/>
      <point x="9523" y="452"/>
      <point x="9630" y="677"/>
      <point x="9630" y="762" type="curve" smooth="yes"/>
      <point x="9630" y="850"/>
      <point x="9573" y="912"/>
      <point x="9492" y="912" type="curve" smooth="yes"/>
      <point x="9411" y="912"/>
      <point x="9354" y="852"/>
      <point x="9354" y="767" type="curve" smooth="yes"/>
      <point x="9354" y="700"/>
      <point x="9486" y="456"/>
    </contour>
    <contour>
      <point x="9514" y="486" type="curve" smooth="yes"/>
      <point x="9514" y="480"/>
      <point x="9501" y="486"/>
      <point x="9494" y="486" type="curve"/>
      <point x="9494" y="533"/>
      <point x="9410" y="711"/>
      <point x="9410" y="760" type="curve" smooth="yes"/>
      <point x="9410" y="835"/>
      <point x="9456" y="857"/>
      <point x="9487" y="857" type="curve" smooth="yes"/>
      <point x="9528" y="857"/>
      <point x="9575" y="836"/>
      <point x="9575" y="762" type="curve" smooth="yes"/>
      <point x="9575" y="690"/>
      <point x="9514" y="533"/>
    </contour>
    <contour>
      <point x="9611" y="380" type="curve" smooth="yes"/>
      <point x="9637" y="354" type="line"/>
      <point x="9665" y="382"/>
      <point x="9900" y="465"/>
      <point x="9960" y="525" type="curve"/>
      <point x="10022" y="588"/>
      <point x="10026" y="672"/>
      <point x="9968" y="729" type="curve" smooth="yes"/>
      <point x="9911" y="786"/>
      <point x="9828" y="784"/>
      <point x="9768" y="724" type="curve" smooth="yes"/>
      <point x="9721" y="677"/>
      <point x="9642" y="411"/>
    </contour>
    <contour>
      <point x="9683" y="412" type="curve" smooth="yes"/>
      <point x="9679" y="408"/>
      <point x="9674" y="421"/>
      <point x="9669" y="426" type="curve"/>
      <point x="9702" y="460"/>
      <point x="9768" y="645"/>
      <point x="9803" y="679" type="curve" smooth="yes"/>
      <point x="9856" y="732"/>
      <point x="9904" y="715"/>
      <point x="9926" y="694" type="curve" smooth="yes"/>
      <point x="9955" y="665"/>
      <point x="9973" y="616"/>
      <point x="9921" y="564" type="curve" smooth="yes"/>
      <point x="9870" y="513"/>
      <point x="9716" y="445"/>
    </contour>
    <contour>
      <point x="9671" y="261" type="curve" smooth="yes"/>
      <point x="9671" y="224" type="line"/>
      <point x="9710" y="224"/>
      <point x="9935" y="117"/>
      <point x="10020" y="117" type="curve" smooth="yes"/>
      <point x="10108" y="117"/>
      <point x="10170" y="174"/>
      <point x="10170" y="255" type="curve" smooth="yes"/>
      <point x="10170" y="336"/>
      <point x="10110" y="393"/>
      <point x="10025" y="393" type="curve" smooth="yes"/>
      <point x="9958" y="393"/>
      <point x="9714" y="261"/>
    </contour>
    <contour>
      <point x="9744" y="233" type="curve" smooth="yes"/>
      <point x="9738" y="233"/>
      <point x="9744" y="246"/>
      <point x="9744" y="253" type="curve"/>
      <point x="9791" y="253"/>
      <point x="9969" y="337"/>
      <point x="10018" y="337" type="curve" smooth="yes"/>
      <point x="10093" y="337"/>
      <point x="10115" y="291"/>
      <point x="10115" y="260" type="curve" smooth="yes"/>
      <point x="10115" y="219"/>
      <point x="10094" y="172"/>
      <point x="10020" y="172" type="curve" smooth="yes"/>
      <point x="9948" y="172"/>
      <point x="9791" y="233"/>
    </contour>
    <contour>
      <point x="9638" y="141" type="curve" smooth="yes"/>
      <point x="9612" y="115" type="line"/>
      <point x="9640" y="87"/>
      <point x="9723" y="-148"/>
      <point x="9783" y="-208" type="curve" smooth="yes"/>
      <point x="9846" y="-270"/>
      <point x="9930" y="-274"/>
      <point x="9987" y="-216" type="curve" smooth="yes"/>
      <point x="10044" y="-159"/>
      <point x="10042" y="-76"/>
      <point x="9982" y="-16" type="curve" smooth="yes"/>
      <point x="9935" y="31"/>
      <point x="9669" y="110"/>
    </contour>
    <contour>
      <point x="9670" y="69" type="curve" smooth="yes"/>
      <point x="9666" y="73"/>
      <point x="9679" y="78"/>
      <point x="9684" y="83" type="curve"/>
      <point x="9718" y="50"/>
      <point x="9903" y="-16"/>
      <point x="9937" y="-51" type="curve" smooth="yes"/>
      <point x="9990" y="-104"/>
      <point x="9973" y="-152"/>
      <point x="9952" y="-174" type="curve" smooth="yes"/>
      <point x="9923" y="-203"/>
      <point x="9874" y="-221"/>
      <point x="9822" y="-169" type="curve" smooth="yes"/>
      <point x="9771" y="-118"/>
      <point x="9703" y="36"/>
    </contour>
    <contour>
      <point x="9526" y="79" type="curve" smooth="yes"/>
      <point x="9489" y="79" type="line"/>
      <point x="9489" y="40"/>
      <point x="9382" y="-185"/>
      <point x="9382" y="-270" type="curve" smooth="yes"/>
      <point x="9382" y="-358"/>
      <point x="9439" y="-420"/>
      <point x="9520" y="-420" type="curve" smooth="yes"/>
      <point x="9601" y="-420"/>
      <point x="9658" y="-360"/>
      <point x="9658" y="-275" type="curve" smooth="yes"/>
      <point x="9658" y="-208"/>
      <point x="9526" y="36"/>
    </contour>
    <contour>
      <point x="9498" y="6" type="curve" smooth="yes"/>
      <point x="9498" y="12"/>
      <point x="9511" y="6"/>
      <point x="9518" y="6" type="curve"/>
      <point x="9518" y="-41"/>
      <point x="9602" y="-219"/>
      <point x="9602" y="-268" type="curve" smooth="yes"/>
      <point x="9602" y="-343"/>
      <point x="9556" y="-365"/>
      <point x="9525" y="-365" type="curve" smooth="yes"/>
      <point x="9484" y="-365"/>
      <point x="9437" y="-344"/>
      <point x="9437" y="-270" type="curve" smooth="yes"/>
      <point x="9437" y="-198"/>
      <point x="9498" y="-41"/>
    </contour>
    <contour>
      <point x="9401" y="112" type="curve" smooth="yes"/>
      <point x="9375" y="138" type="line"/>
      <point x="9347" y="110"/>
      <point x="9112" y="27"/>
      <point x="9052" y="-33" type="curve"/>
      <point x="8990" y="-96"/>
      <point x="8986" y="-180"/>
      <point x="9044" y="-237" type="curve" smooth="yes"/>
      <point x="9101" y="-294"/>
      <point x="9184" y="-292"/>
      <point x="9244" y="-232" type="curve" smooth="yes"/>
      <point x="9291" y="-185"/>
      <point x="9370" y="81"/>
    </contour>
    <contour>
      <point x="9329" y="80" type="curve" smooth="yes"/>
      <point x="9333" y="84"/>
      <point x="9338" y="71"/>
      <point x="9343" y="66" type="curve"/>
      <point x="9310" y="32"/>
      <point x="9244" y="-153"/>
      <point x="9209" y="-187" type="curve" smooth="yes"/>
      <point x="9156" y="-240"/>
      <point x="9108" y="-223"/>
      <point x="9086" y="-202" type="curve" smooth="yes"/>
      <point x="9057" y="-173"/>
      <point x="9039" y="-124"/>
      <point x="9091" y="-72" type="curve" smooth="yes"/>
      <point x="9142" y="-21"/>
      <point x="9296" y="47"/>
    </contour>
    <contour>
      <point x="9341" y="231" type="curve" smooth="yes"/>
      <point x="9341" y="268" type="line"/>
      <point x="9302" y="268"/>
      <point x="9077" y="375"/>
      <point x="8992" y="375" type="curve" smooth="yes"/>
      <point x="8904" y="375"/>
      <point x="8842" y="318"/>
      <point x="8842" y="237" type="curve" smooth="yes"/>
      <point x="8842" y="156"/>
      <point x="8902" y="99"/>
      <point x="8987" y="99" type="curve" smooth="yes"/>
      <point x="9054" y="99"/>
      <point x="9298" y="231"/>
    </contour>
    <contour>
      <point x="9268" y="259" type="curve" smooth="yes"/>
      <point x="9274" y="259"/>
      <point x="9268" y="246"/>
      <point x="9268" y="239" type="curve"/>
      <point x="9221" y="239"/>
      <point x="9043" y="155"/>
      <point x="8994" y="155" type="curve" smooth="yes"/>
      <point x="8919" y="155"/>
      <point x="8897" y="201"/>
      <point x="8897" y="232" type="curve" smooth="yes"/>
      <point x="8897" y="273"/>
      <point x="8918" y="320"/>
      <point x="8992" y="320" type="curve" smooth="yes"/>
      <point x="9064" y="320"/>
      <point x="9221" y="259"/>
    </contour>
    <contour>
      <point x="9374" y="351" type="curve" smooth="yes"/>
      <point x="9400" y="377" type="line"/>
      <point x="9372" y="405"/>
      <point x="9289" y="640"/>
      <point x="9229" y="700" type="curve" smooth="yes"/>
      <point x="9166" y="762"/>
      <point x="9082" y="766"/>
      <point x="9025" y="708" type="curve" smooth="yes"/>
      <point x="8968" y="651"/>
      <point x="8970" y="568"/>
      <point x="9030" y="508" type="curve" smooth="yes"/>
      <point x="9077" y="461"/>
      <point x="9343" y="382"/>
    </contour>
    <contour>
      <point x="9342" y="423" type="curve" smooth="yes"/>
      <point x="9346" y="419"/>
      <point x="9333" y="414"/>
      <point x="9328" y="409" type="curve"/>
      <point x="9294" y="442"/>
      <point x="9109" y="508"/>
      <point x="9075" y="543" type="curve" smooth="yes"/>
      <point x="9022" y="596"/>
      <point x="9039" y="644"/>
      <point x="9060" y="666" type="curve" smooth="yes"/>
      <point x="9089" y="695"/>
      <point x="9138" y="713"/>
      <point x="9190" y="661" type="curve" smooth="yes"/>
      <point x="9241" y="610"/>
      <point x="9309" y="456"/>
    </contour>
  </outline>
</glyph>
<glyph name="c_t" format="2">
  <advance width="663"/>
  <anchor x="232" y="435" name="top_1"/>
  <anchor x="563" y="435" name="top_2"/>
  <anchor x="100" y="0" name="bottom_1"/>
  <anchor x="431" y="0" name="bottom_2"/>
  <anchor x="331.5" y="0" name="caret_1"/>
  <outline>
    <contour>
      <point x="325" y="344" type="curve"/>
      <point x="335" y="354" type="line"/>
      <point x="310" y="355"/>
      <point x="156" y="580"/>
      <point x="311" y="580" type="curve" smooth="yes"/>
      <point x="377" y="580"/>
      <point x="385" y="526"/>
      <point x="451" y="526" type="curve" smooth="yes"/>
      <point x="485" y="526"/>
      <point x="559" y="577"/>
      <point x="577" y="581" type="curve"/>
      <point x="561" y="599" type="line"/>
      <point x="543" y="595"/>
      <point x="505" y="566"/>
      <point x="491" y="566" type="curve" smooth="yes"/>
      <point x="425" y="566"/>
      <point x="417" y="620"/>
      <point x="351" y="620" type="curve" smooth="yes"/>
      <point x="93" y="620"/>
      <point x="279" y="344"/>
    </contour>
    <component base="c"/>
    <component base="t" xOffset="391"/>
  </outline>
</glyph>
<glyph name="f_i" format="2">
  <advance width="508"/>
  <outline>
    <contour>
      <point x="-13" y="-208" type="curve" smooth="yes"/>
      <point x="52" y="-208"/>
      <point x="133" y="-63"/>
      <point x="171" y="142" type="curve" smooth="yes"/>
      <point x="236" y="497" type="line" smooth="yes"/>
      <point x="254" y="598"/>
      <point x="333" y="670"/>
      <point x="370" y="670" type="curve" smooth="yes"/>
      <point x="442" y="670"/>
      <point x="433" y="639"/>
      <point x="418" y="581" type="curve" smooth="yes"/>
      <point x="414" y="568"/>
      <point x="418" y="558"/>
      <point x="428" y="558" type="curve" smooth="yes"/>
      <point x="461" y="558"/>
      <point x="510" y="578"/>
      <point x="517" y="606" type="curve" smooth="yes"/>
      <point x="531" y="663"/>
      <point x="493" y="703"/>
      <point x="385" y="703" type="curve" smooth="yes"/>
      <point x="296" y="703"/>
      <point x="178" y="616"/>
      <point x="155" y="493" type="curve" smooth="yes"/>
      <point x="90" y="138" type="line" smooth="yes"/>
      <point x="56" y="-48"/>
      <point x="13" y="-175"/>
      <point x="2" y="-175" type="curve" smooth="yes"/>
      <point x="-30" y="-175"/>
      <point x="-41" y="-144"/>
      <point x="-26" y="-86" type="curve" smooth="yes"/>
      <point x="-22" y="-73"/>
      <point x="-26" y="-63"/>
      <point x="-36" y="-63" type="curve" smooth="yes"/>
      <point x="-69" y="-63"/>
      <point x="-98" y="-83"/>
      <point x="-105" y="-111" type="curve" smooth="yes"/>
      <point x="-119" y="-168"/>
      <point x="-81" y="-208"/>
    </contour>
    <contour>
      <point x="66" y="408" type="line"/>
      <point x="330" y="408" type="line"/>
      <point x="343" y="450" type="line"/>
      <point x="79" y="450" type="line"/>
    </contour>
    <contour>
      <point x="321" y="-8" type="curve" smooth="yes"/>
      <point x="381" y="-8"/>
      <point x="461" y="86"/>
      <point x="514" y="218" type="curve"/>
      <point x="484" y="228" type="line"/>
      <point x="447" y="137"/>
      <point x="404" y="72"/>
      <point x="380" y="72" type="curve" smooth="yes"/>
      <point x="361" y="72"/>
      <point x="367" y="113"/>
      <point x="394" y="185" type="curve" smooth="yes"/>
      <point x="462" y="369" type="line" smooth="yes"/>
      <point x="480" y="419"/>
      <point x="471" y="451"/>
      <point x="435" y="451" type="curve"/>
      <point x="343" y="450" type="line"/>
      <point x="329" y="408" type="line"/>
      <point x="346" y="408"/>
      <point x="359" y="409"/>
      <point x="381" y="409" type="curve" smooth="yes"/>
      <point x="392" y="409"/>
      <point x="380" y="359"/>
      <point x="354" y="286" type="curve" smooth="yes"/>
      <point x="303" y="143" type="line" smooth="yes"/>
      <point x="272" y="56"/>
      <point x="277" y="-8"/>
    </contour>
  </outline>
</glyph>
<glyph name="s.hist" format="2">
  <advance width="252"/>
  <outline>
    <contour>
      <point x="-76" y="-208" type="curve" smooth="yes"/>
      <point x="12" y="-208"/>
      <point x="89" y="-60"/>
      <point x="137" y="149" type="curve" smooth="yes"/>
      <point x="220" y="507" type="line" smooth="yes"/>
      <point x="244" y="608"/>
      <point x="287" y="670"/>
      <point x="323" y="670" type="curve" smooth="yes"/>
      <point x="354" y="670"/>
      <point x="364" y="639"/>
      <point x="347" y="581" type="curve" smooth="yes"/>
      <point x="342" y="568"/>
      <point x="346" y="558"/>
      <point x="356" y="558" type="curve" smooth="yes"/>
      <point x="390" y="558"/>
      <point x="419" y="578"/>
      <point x="427" y="606" type="curve" smooth="yes"/>
      <point x="444" y="663"/>
      <point x="408" y="703"/>
      <point x="340" y="703" type="curve" smooth="yes"/>
      <point x="251" y="703"/>
      <point x="168" y="616"/>
      <point x="139" y="493" type="curve" smooth="yes"/>
      <point x="56" y="132" type="line" smooth="yes"/>
      <point x="13" y="-54"/>
      <point x="-23" y="-175"/>
      <point x="-59" y="-175" type="curve" smooth="yes"/>
      <point x="-90" y="-175"/>
      <point x="-100" y="-144"/>
      <point x="-83" y="-86" type="curve" smooth="yes"/>
      <point x="-78" y="-73"/>
      <point x="-82" y="-63"/>
      <point x="-92" y="-63" type="curve" smooth="yes"/>
      <point x="-126" y="-63"/>
      <point x="-155" y="-83"/>
      <point x="-163" y="-111" type="curve" smooth="yes"/>
      <point x="-180" y="-168"/>
      <point x="-144" y="-208"/>
    </contour>
  </outline>
</glyph>
<glyph name="s_t" format="2">
  <advance width="663"/>
  <outline>
    <contour>
      <point x="305" y="344" type="curve"/>
      <point x="315" y="354" type="line"/>
      <point x="290" y="355"/>
      <point x="116" y="580"/>
      <point x="311" y="580" type="curve" smooth="yes"/>
      <point x="377" y="580"/>
      <point x="385" y="526"/>
      <point x="451" y="526" type="curve" smooth="yes"/>
      <point x="485" y="526"/>
      <point x="559" y="577"/>
      <point x="577" y="581" type="curve"/>
      <point x="561" y="599" type="line"/>
      <point x="543" y="595"/>
      <point x="505" y="566"/>
      <point x="491" y="566" type="curve" smooth="yes"/>
      <point x="425" y="566"/>
      <point x="417" y="620"/>
      <point x="351" y="620" type="curve" smooth="yes"/>
      <point x="53" y="620"/>
      <point x="259" y="344"/>
    </contour>
    <component base="s"/>
    <component base="t" xOffset="391"/>
  </outline>
</glyph>
